<?xml version="1.0" standalone="no"?>
<!DOCTYPE svg PUBLIC "-//W3C//DTD SVG 1.1//EN" "http://www.w3.org/Graphics/SVG/1.1/DTD/svg11.dtd" >
<svg xmlns="http://www.w3.org/2000/svg">
<metadata>
<json>
<![CDATA[
{
	"fontFamily": "linearicons",
	"majorVersion": 1,
	"minorVersion": 0,
	"version": "Version 1.0",
	"fontId": "linearicons",
	"psName": "linearicons",
	"subFamily": "Regular",
	"fullName": "linearicons",
	"description": "Font generated by IcoMoon."
}
]]>
</json>
</metadata>
<defs>
<font id="linearicons" horiz-adv-x="1024">
<font-face units-per-em="1024" ascent="960" descent="-64" />
<missing-glyph horiz-adv-x="1024" />
<glyph unicode="&#x20;" horiz-adv-x="512" d="" />
<glyph unicode="&#xe900;" glyph-name="administrator" data-tags="administrator" horiz-adv-x="768" d="M384 960c-211.936 0-384-172.064-384-384s172.064-384 384-384c211.936 0 384 172.064 384 384s-172.064 384-384 384zM384 896c176.608 0 320-143.392 320-320s-143.392-320-320-320c-176.608 0-320 143.392-320 320s143.392 320 320 320zM725.336-31.973c0 17.635-14.336 31.97-32 31.97h-618.667c-17.664 0-32-14.336-32-31.97 0-17.674 14.336-32.010 32-32.010h618.667c17.664 0 32 14.336 32 32.010zM618.664 95.585c0 17.635-14.334 31.97-32.003 31.97h-405.328c-17.668 0-32.003-14.336-32.003-31.97 0-17.674 14.334-32.010 32.003-32.010h405.328c17.668 0 32.003 14.336 32.003 32.010z" />
<glyph unicode="&#xe901;" glyph-name="alarm-clock" data-tags="alarm-clock" d="M502.201 852.525c-247.067 0-447.652-200.586-447.652-447.652s200.586-447.652 447.652-447.652c247.067 0 447.652 200.586 447.652 447.652s-200.586 447.652-447.652 447.652zM502.201 777.916c205.883 0 373.044-167.161 373.044-373.044s-167.161-373.044-373.044-373.044c-205.883 0-373.044 167.161-373.044 373.044s167.161 373.044 373.044 373.044zM539.529 665.993c0 20.598-16.71 37.308-37.299 37.308s-37.299-16.71-37.299-37.308v-257.379c0-20.598 16.71-37.308 37.299-37.308s37.299 16.71 37.299 37.308v257.379zM706.405 249.302c17.838-10.299 40.664-4.183 50.959 13.648s4.178 40.657-13.66 50.955l-222.897 128.689c-17.838 10.299-40.664 4.183-50.959-13.648s-4.178-40.657 13.66-50.955l222.897-128.689zM339.019 874.299c4.224 18.797 2.161 36.173-6.030 50.36-25.735 44.574-104.619 47.282-175.855 6.154s-108.333-110.797-82.598-155.372c8.191-14.188 22.207-24.662 40.598-30.403l223.884 129.26zM889.252 745.040c18.391 5.741 32.407 16.215 40.598 30.403 25.735 44.574-11.362 114.244-82.598 155.372s-150.12 38.42-175.855-6.154c-8.191-14.188-10.254-31.563-6.030-50.36l223.884-129.26z" />
<glyph unicode="&#xe902;" glyph-name="angle-down" data-tags="angle-down" d="M11.542 712.184c-15.356-15.356-15.356-40.326 0.011-55.694l445.58-445.58c15.368-15.368 40.338-15.367 55.694-0.011 15.374 15.374 15.374 40.344 0.006 55.712l-445.58 445.58c-15.368 15.368-40.338 15.367-55.712-0.006zM457.154 210.891c15.356-15.356 40.326-15.356 55.694 0.011l445.58 445.58c15.368 15.368 15.367 40.338 0.011 55.694-15.374 15.374-40.344 15.374-55.712 0.006l-445.58-445.58c-15.368-15.368-15.367-40.338 0.006-55.712z" />
<glyph unicode="&#xe903;" glyph-name="angle-left" data-tags="angle-left" d="M749.103 948.458c-15.356 15.356-40.326 15.356-55.694-0.011l-445.58-445.58c-15.368-15.368-15.367-40.338-0.011-55.694 15.374-15.374 40.344-15.374 55.712-0.006l445.58 445.58c15.368 15.368 15.367 40.338-0.006 55.712zM247.811 502.846c-15.356-15.356-15.356-40.326 0.011-55.694l445.58-445.58c15.368-15.368 40.338-15.367 55.694-0.011 15.374 15.374 15.374 40.344 0.006 55.712l-445.58 445.58c-15.368 15.368-40.338 15.367-55.712-0.006z" />
<glyph unicode="&#xe904;" glyph-name="angle-right" data-tags="angle-right" d="M247.777 1.578c15.356-15.356 40.326-15.356 55.694 0.011l445.58 445.58c15.368 15.368 15.367 40.338 0.011 55.694-15.374 15.374-40.344 15.374-55.712 0.006l-445.58-445.58c-15.368-15.368-15.367-40.338 0.006-55.712zM749.069 447.189c15.356 15.356 15.356 40.326-0.011 55.694l-445.58 445.58c-15.368 15.368-40.338 15.367-55.694 0.011-15.374-15.374-15.374-40.344-0.006-55.712l445.58-445.58c15.368-15.368 40.338-15.367 55.712 0.006z" />
<glyph unicode="&#xe905;" glyph-name="angle-up" data-tags="angle-up" d="M958.416 210.913c15.356 15.356 15.356 40.326-0.011 55.694l-445.58 445.58c-15.368 15.368-40.338 15.367-55.694 0.011-15.374-15.374-15.374-40.344-0.006-55.712l445.58-445.58c15.368-15.368 40.338-15.367 55.712 0.006zM512.804 712.205c-15.356 15.356-40.326 15.356-55.694-0.011l-445.58-445.58c-15.368-15.368-15.367-40.338-0.011-55.694 15.374-15.374 40.344-15.374 55.712-0.006l445.58 445.58c15.368 15.368 15.367 40.338-0.006 55.712z" />
<glyph unicode="&#xe906;" glyph-name="arrow-down" data-tags="arrow-down" d="M216.553 262.931c-12.742-12.742-12.751-33.453 0.007-46.211l261.9-261.9c12.758-12.758 33.469-12.749 46.211-0.007 12.757 12.757 12.766 33.468 0.008 46.226l-261.9 261.9c-12.758 12.758-33.469 12.749-46.226-0.008zM478.468-45.18c12.742-12.742 33.453-12.751 46.211 0.007l261.9 261.9c12.758 12.758 12.749 33.469 0.007 46.211-12.757 12.757-33.468 12.766-46.226 0.008l-261.9-261.9c-12.758-12.758-12.749-33.469 0.008-46.226zM468.884-22.054c0-18.043 14.647-32.693 32.683-32.693s32.683 14.65 32.683 32.693v949.346c0 18.043-14.647 32.693-32.683 32.693s-32.683-14.65-32.683-32.693v-949.346z" />
<glyph unicode="&#xe907;" glyph-name="arrow-left" data-tags="arrow-left" d="M317.686 743.447c-12.742 12.742-33.453 12.751-46.211-0.007l-261.9-261.9c-12.758-12.758-12.749-33.469-0.007-46.211 12.757-12.757 33.468-12.766 46.226-0.008l261.9 261.9c12.758 12.758 12.749 33.469-0.008 46.226zM9.568 481.532c-12.742-12.742-12.751-33.453 0.007-46.211l261.9-261.9c12.758-12.758 33.469-12.749 46.211-0.007 12.757 12.757 12.766 33.468 0.008 46.226l-261.9 261.9c-12.758 12.758-33.469 12.749-46.226-0.008zM32.701 491.11c-18.043 0-32.693-14.647-32.693-32.683s14.65-32.683 32.693-32.683h949.346c18.043 0 32.693 14.647 32.693 32.683s-14.65 32.683-32.693 32.683h-949.346z" />
<glyph unicode="&#xe908;" glyph-name="arrow-right" data-tags="arrow-right" d="M697.061 173.428c12.742-12.742 33.453-12.751 46.211 0.007l261.9 261.9c12.758 12.758 12.749 33.469 0.007 46.211-12.757 12.757-33.468 12.766-46.226 0.008l-261.9-261.9c-12.758-12.758-12.749-33.469 0.008-46.226zM1005.185 435.342c12.742 12.742 12.751 33.453-0.007 46.211l-261.9 261.9c-12.758 12.758-33.469 12.749-46.211 0.007-12.757-12.757-12.766-33.468-0.008-46.226l261.9-261.9c12.758-12.758 33.469-12.749 46.226 0.008zM982.062 425.757c18.043 0 32.693 14.647 32.693 32.683s-14.65 32.683-32.693 32.683h-949.346c-18.043 0-32.693-14.647-32.693-32.683s14.65-32.683 32.693-32.683h949.346z" />
<glyph unicode="&#xe909;" glyph-name="arrow-up" data-tags="arrow-up" d="M786.583 641.784c12.742 12.742 12.751 33.453-0.007 46.211l-261.9 261.9c-12.758 12.758-33.469 12.749-46.211 0.007-12.757-12.757-12.766-33.468-0.008-46.226l261.9-261.9c12.758-12.758 33.469-12.749 46.226 0.008zM524.665 949.896c-12.742 12.742-33.453 12.751-46.211-0.007l-261.9-261.9c-12.758-12.758-12.749-33.469-0.007-46.211 12.757-12.757 33.468-12.766 46.226-0.008l261.9 261.9c12.758 12.758 12.749 33.469-0.008 46.226zM534.243 927.311c0 18.043-14.647 32.693-32.683 32.693s-32.683-14.65-32.683-32.693v-949.346c0-18.043 14.647-32.693 32.683-32.693s32.683 14.65 32.683 32.693v949.346z" />
<glyph unicode="&#xe90a;" glyph-name="ban" data-tags="ban" d="M512 960c-282.581 0-512-229.419-512-512s229.419-512 512-512c282.667 0 512 229.419 512 512s-229.333 512-512 512zM512 874.667c235.52 0 426.667-191.189 426.667-426.667s-191.147-426.667-426.667-426.667c-235.477 0-426.667 191.189-426.667 426.667s191.189 426.667 426.667 426.667zM242.027 778.304l600.213-600.277c-17.92-22.059-38.187-42.283-60.373-60.331l-600.171 600.277c18.048 22.059 38.272 42.283 60.331 60.331z" />
<glyph unicode="&#xe90b;" glyph-name="bar-chart" data-tags="bar-chart" d="M1024 960v-1024h-298.667v1024h298.667zM938.667 874.667h-128v-853.333h128v853.333zM297.606 618.667v-682.667h-297.6v682.667h297.6zM212.806 533.333h-128v-512h128v512zM661.333 447.995v-512h-298.667v512h298.667zM576 362.661h-128v-341.333h128v341.333z" />
<glyph unicode="&#xe90c;" glyph-name="behance" data-tags="behance" d="M694.123 346.688c0-36.053 12.16-70.187 31.019-88.512 18.752-18.325 45.845-27.541 80.981-27.541 25.28 0 47.125 6.4 65.429 19.115 18.133 12.736 29.184 26.304 33.472 40.448h110.315c-17.728-54.912-44.629-94.101-81.323-117.696-36.288-23.68-80.512-35.499-132.075-35.499-35.925 0-68.245 5.803-97.28 17.259-29.013 11.605-53.248 27.883-73.643 49.045-19.883 21.291-35.328 46.443-46.336 76.011-10.88 29.397-16.341 61.952-16.341 97.216 0 34.091 5.675 65.941 16.832 95.381 11.392 29.568 27.093 55.061 47.765 76.459 20.715 21.483 45.291 38.443 73.899 50.837 28.608 12.352 60.181 18.56 95.104 18.56 38.592 0 72.384-7.445 101.355-22.549 28.864-14.912 52.523-35.136 71.104-60.437 18.624-25.259 31.808-54.165 40.085-86.571 8.213-32.32 11.072-66.155 8.704-101.525h-329.067zM305.301 148.821h-305.301v629.845h296.96c30.144 0 57.323-2.581 82.176-7.979 24.704-5.248 45.803-13.973 63.637-25.984 17.515-11.989 31.253-27.947 41.109-48.043 9.579-19.797 14.4-44.587 14.4-73.92 0-31.68-7.211-58.176-21.589-79.36-14.507-21.141-35.797-38.485-64.277-51.947 38.763-11.136 67.499-30.763 86.528-58.645 19.115-28.096 28.48-61.696 28.48-101.099 0-31.957-6.123-59.456-18.347-82.581-12.309-23.424-29.099-42.389-49.813-57.024-20.843-14.784-44.821-25.621-71.659-32.661-26.517-7.061-54.101-10.603-82.304-10.603zM289.472 429.547h-150.784v-173.461h147.989c13.696 0 26.688 1.216 38.891 3.947 12.416 2.709 23.424 7.019 32.704 13.355 9.237 6.123 16.939 14.485 22.528 25.131 5.589 10.581 8.299 24.277 8.299 40.832 0 32.469-9.152 55.509-27.328 69.525-18.197 13.803-42.453 20.672-72.299 20.672zM869.056 497.792c-14.891 16.491-40.107 25.387-70.869 25.387-20.032 0-36.587-3.349-49.856-10.219-12.949-6.784-23.573-15.211-31.701-25.131-8.085-10.091-13.589-20.736-16.789-32.128-3.243-11.093-5.141-21.163-5.717-30.059h203.797c-2.987 31.936-13.931 55.531-28.864 72.149zM268.459 671.403h-129.771v-147.2h140.331c24.597 0 44.928 5.824 61.035 17.664 15.957 11.648 23.68 30.891 23.68 57.28 0 14.656-2.56 26.752-7.723 36.16-5.355 9.387-12.437 16.768-21.376 21.909-8.875 5.355-18.901 9.067-30.528 11.072-11.435 2.219-23.403 3.115-35.648 3.115zM923.797 736.427v-62.165h-255.317v62.165h255.317z" />
<glyph unicode="&#xe90d;" glyph-name="bell" data-tags="bell" horiz-adv-x="896" d="M841.76 246.624c-61.664 53.312-105.76 194.976-105.76 361.376 0 125.952-80.928 232.736-193.6 271.84-7.584 45.44-46.848 80.16-94.4 80.16-47.584 0-86.816-34.72-94.4-80.16-112.64-39.104-193.6-145.888-193.6-271.84 0-166.368-44.064-308-105.76-361.376-34.432-29.824-54.24-73.056-54.24-118.624 0-53.024 42.976-96 96-96h256c0-53.024 42.976-96 96-96s96 42.976 96 96h256c53.024 0 96 42.976 96 96 0 45.536-19.776 88.8-54.24 118.624zM96 128c0 17.664 7.68 34.464 21.024 45.984 85.728 74.144 138.976 240.448 138.976 434.016 0 105.888 86.112 192 192 192s192-86.112 192-192c0-193.568 53.248-359.872 138.976-434.016 13.376-11.552 21.024-28.32 21.024-45.984h-704z" />
<glyph unicode="&#xe90e;" glyph-name="camera" data-tags="camera" d="M921.6 704c56.533 0 102.4-45.888 102.4-102.4v-477.867c0-56.512-45.867-102.4-102.4-102.4h-819.2c-56.533 0-102.4 45.888-102.4 102.4v477.867c0 56.512 45.867 102.4 102.4 102.4h819.2zM887.467 618.667h-750.933c-28.16 0-51.2-22.933-51.2-51.2v-409.6c0-28.267 23.040-51.2 51.2-51.2h750.933c28.16 0 51.2 22.933 51.2 51.2v409.6c0 28.267-23.040 51.2-51.2 51.2zM397.44 704h-98.773c0 0 65.92 105.515 94.080 150.613 7.893 12.48 21.547 20.053 36.267 20.053 40.96 0 125.013 0 165.973 0 14.72 0 28.373-7.573 36.267-20.053l94.080-150.613h-98.773l-44.587 89.131c-3.627 7.232-11.093 11.797-19.2 11.797-24.533 0-77.013 0-101.547 0-8.107 0-15.573-4.565-19.2-11.797l-44.587-89.131zM512 533.333c-94.080 0-170.667-76.48-170.667-170.667s76.587-170.667 170.667-170.667c94.080 0 170.667 76.48 170.667 170.667s-76.587 170.667-170.667 170.667zM512 426.667c35.413 0 64-28.672 64-64s-28.587-64-64-64c-35.413 0-64 28.672-64 64s28.587 64 64 64zM353.707 298.667c10.027-24.747 25.813-46.613 45.44-64h-320v64h274.56zM944.853 234.667h-320c19.627 17.387 35.413 39.253 45.44 64h274.56v-64zM131.112 572.941h128.005v-127.996h-128.005v127.996z" />
<glyph unicode="&#xe90f;" glyph-name="chatbot" data-tags="chatbot" d="M777.615 636.657c0-44.645-26.821-80.838-59.906-80.838s-59.906 36.192-59.906 80.838c0 44.645 26.821 80.838 59.906 80.838s59.906-36.192 59.906-80.838zM617.866 636.657c0-66.968-40.231-121.257-89.859-121.257s-89.859 54.288-89.859 121.257c0 66.968 40.231 121.257 89.859 121.257s89.859-54.288 89.859-121.257zM209.85 119.496c25.054-23.552 52.588-44.419 82.193-62.168-0.023-1.616-0.091-3.254-0.205-4.915-2.207-30.151-21.39-56.457-49.448-67.766-48.287-19.456-89.588-36.113-89.588-36.113s-6.781 47.127-14.541 101.103c-1.729 11.992-0.569 23.962 3.117 35.044 26.942 0.705 52.11 13.517 68.517 34.771l-0.046 0.046zM208.576 120.702l0.978-0.933-0.637 0.592-0.341 0.341zM206.983 122.204l1.206-1.138c-0.41 0.387-0.819 0.751-1.206 1.138zM205.708 123.41l1.092-1.024-0.774 0.728-0.319 0.296zM204.184 124.912l1.183-1.161-0.296 0.273-0.887 0.887zM202.887 126.163l1.229-1.206c-0.41 0.41-0.819 0.796-1.229 1.206zM201.453 127.574l1.115-1.092-0.341 0.341-0.774 0.751zM200.088 128.917l1.229-1.206c-0.41 0.41-0.819 0.796-1.229 1.206zM198.723 130.305l1.070-1.092-0.41 0.41-0.66 0.683zM197.312 131.715l1.229-1.252c-0.41 0.41-0.819 0.842-1.229 1.252zM195.969 133.058v0zM194.536 134.537l1.252-1.274c-0.41 0.41-0.842 0.842-1.252 1.274zM108.156 255.893c25.805-51.428 60.37-97.576 101.74-136.443-17.681-22.869-45.511-35.999-74.774-34.725-69.586 3.049-135.19 5.916-135.19 5.916s31.448 61.053 64.284 124.792c9.557 18.569 25.281 32.723 43.941 40.459zM665.878 350.575c0 16.714-17.574 30.306-39.228 30.306h-471.769c-21.655 0-39.228-13.592-39.228-30.306 0-16.745 17.574-30.306 39.228-30.306h471.769c21.655 0 39.228 13.561 39.228 30.306zM535.855 960.008c-264.505 0-479.247-217.332-479.247-485.026s214.743-485.026 479.247-485.026c264.505 0 479.247 217.332 479.247 485.026s-214.743 485.026-479.247 485.026zM535.855 879.17c220.414 0 399.373-181.117 399.373-404.189s-178.959-404.189-399.373-404.189c-220.414 0-399.373 181.117-399.373 404.189s178.959 404.189 399.373 404.189zM745.915 391.444c0 22.034-17.902 39.948-39.941 39.948h-79.882c-22.040 0-39.941-17.914-39.941-39.948v-81.782c0-22.069 17.902-39.948 39.941-39.948h79.882c22.040 0 39.941 17.879 39.941 39.948v81.782z" />
<glyph unicode="&#xe910;" glyph-name="check" data-tags="check" d="M997.161 823.155c-27.229 27.229-71.496 27.241-98.73 0.008l-644.016-644.016c-27.234-27.234-27.221-71.501 0.008-98.73s71.496-27.241 98.73-0.008l644.016 644.016c27.234 27.234 27.221 71.501-0.008 98.73zM20.408 413.433c-27.229-27.229-27.249-71.489 0-98.738l230.388-230.388c27.249-27.249 71.509-27.229 98.738 0s27.249 71.489 0 98.738l-230.388 230.388c-27.249 27.249-71.509 27.229-98.738 0z" />
<glyph unicode="&#xe911;" glyph-name="circle" data-tags="circle" d="M1024.015 447.944c0-282.776-229.232-512.011-512.004-512.011s-512.004 229.235-512.004 512.011c0 282.776 229.232 512.011 512.004 512.011s512.004-229.235 512.004-512.011z" />
<glyph unicode="&#xe912;" glyph-name="circle-check" data-tags="circle-check" d="M512 960c-282.581 0-512-229.419-512-512s229.419-512 512-512c282.581 0 512 229.419 512 512s-229.419 512-512 512zM512 874.667c235.477 0 426.667-191.189 426.667-426.667s-191.189-426.667-426.667-426.667c-235.477 0-426.667 191.189-426.667 426.667s191.189 426.667 426.667 426.667zM735.069 618.193c-12.48 12.48-32.769 12.486-45.251 0.004l-295.174-295.174c-12.482-12.482-12.476-32.771 0.004-45.251s32.769-12.486 45.251-0.004l295.174 295.174c12.482 12.482 12.476 32.771-0.004 45.251zM288.991 428.654c-12.48-12.48-12.489-32.766 0-45.255l105.595-105.595c12.489-12.489 32.775-12.48 45.255 0s12.489 32.766 0 45.255l-105.595 105.595c-12.489 12.489-32.775 12.48-45.255 0z" />
<glyph unicode="&#xe913;" glyph-name="circle-close" data-tags="circle-close" d="M512 960c-282.581 0-512-229.419-512-512s229.419-512 512-512c282.581 0 512 229.419 512 512s-229.419 512-512 512zM512 874.667c235.477 0 426.667-191.189 426.667-426.667s-191.189-426.667-426.667-426.667c-235.477 0-426.667 191.189-426.667 426.667s191.189 426.667 426.667 426.667zM677.6 282.409c12.482 12.482 12.487 32.755-0.003 45.245l-287.243 287.243c-12.481 12.481-32.763 12.485-45.245 0.003-12.493-12.493-12.489-32.776-0.008-45.256l287.243-287.243c12.49-12.49 32.763-12.485 45.256 0.008zM678.891 614.906c-12.482 12.482-32.756 12.486-45.247-0.005l-288.538-288.538c-12.491-12.491-12.486-32.765-0.005-45.247 12.493-12.493 32.767-12.497 45.258-0.007l288.538 288.538c12.491 12.491 12.486 32.765-0.007 45.258z" />
<glyph unicode="&#xe914;" glyph-name="circle-exclamation" data-tags="circle-exclamation" d="M544.028 687.999c0 17.662-14.339 32.003-32.005 32.003s-32.005-14.342-32.005-32.003v-362.669c0-17.662 14.339-31.99 32.005-31.99s32.005 14.328 32.005 31.99v362.669zM543.983 208.023c0-17.673-14.327-31.999-31.999-31.999s-31.999 14.327-31.999 31.999c0 17.673 14.327 31.999 31.999 31.999s31.999-14.327 31.999-31.999zM512 960c-282.581 0-512-229.419-512-512s229.419-512 512-512c282.581 0 512 229.419 512 512s-229.419 512-512 512zM512 874.667c235.477 0 426.667-191.189 426.667-426.667s-191.189-426.667-426.667-426.667c-235.477 0-426.667 191.189-426.667 426.667s191.189 426.667 426.667 426.667z" />
<glyph unicode="&#xe915;" glyph-name="circle-plus" data-tags="circle-plus" d="M512 960c-282.581 0-512-229.419-512-512s229.419-512 512-512c282.667 0 512 229.419 512 512s-229.333 512-512 512zM512 874.667c235.52 0 426.667-191.189 426.667-426.667s-191.147-426.667-426.667-426.667c-235.477 0-426.667 191.189-426.667 426.667s191.189 426.667 426.667 426.667zM554.705 661.344c0 23.552-19.101 42.656-42.643 42.656s-42.692-19.104-42.692-42.656v-426.688c0-23.552 19.15-42.656 42.692-42.656s42.643 19.104 42.643 42.656v426.688zM725.344 405.295c23.552 0 42.656 19.101 42.656 42.643s-19.104 42.692-42.656 42.692h-426.688c-23.552 0-42.656-19.15-42.656-42.692s19.104-42.643 42.656-42.643h426.688z" />
<glyph unicode="&#xe916;" glyph-name="circle-question" data-tags="circle-question" d="M512 960c-282.667 0-512-229.419-512-512s229.333-512 512-512c282.667 0 512 229.419 512 512s-229.333 512-512 512zM512 874.667c235.52 0 426.667-191.189 426.667-426.667s-191.147-426.667-426.667-426.667c-235.52 0-426.667 191.189-426.667 426.667s191.147 426.667 426.667 426.667zM544.427 202.667v67.456h-64.64v-67.456h64.64zM537.813 321.472h-54.613c-0.213 7.893-0.213 13.824-0.213 17.771 0 23.253 3.2 43.328 9.387 60.224 4.693 12.715 12.16 25.557 22.4 38.507 7.68 9.429 21.333 23.189 40.96 41.28 19.627 18.112 32.427 32.533 38.4 43.285 5.76 10.752 8.747 22.485 8.747 35.221 0 23.019-8.533 43.264-25.813 60.715-17.28 17.429-38.4 26.155-63.573 26.155-24.107 0-44.373-7.893-60.587-23.701-16.213-15.787-26.667-40.469-31.787-74.048l-58.453 7.253c5.333 44.971 20.907 79.424 46.933 103.339s60.373 35.861 103.040 35.861c45.227 0 81.28-12.843 108.373-38.507 26.88-25.664 40.32-56.704 40.32-93.12 0-21.077-4.693-40.491-14.293-58.261-9.387-17.771-27.947-39.381-55.467-64.832-18.56-17.109-30.72-29.717-36.267-37.845-5.76-8.107-10.027-17.429-12.587-27.968-2.773-10.517-4.48-27.648-4.907-51.328z" />
<glyph unicode="&#xe917;" glyph-name="clock" data-tags="clock" d="M512 960c-282.581 0-512-229.419-512-512s229.419-512 512-512c282.581 0 512 229.419 512 512s-229.419 512-512 512zM512 874.667c235.477 0 426.667-191.189 426.667-426.667s-191.189-426.667-426.667-426.667c-235.477 0-426.667 191.189-426.667 426.667s191.189 426.667 426.667 426.667zM554.694 746.656c0 23.558-19.112 42.671-42.66 42.671s-42.66-19.112-42.66-42.671v-294.376c0-23.558 19.112-42.671 42.66-42.671s42.66 19.112 42.66 42.671v294.376zM745.558 270.068c20.402-11.779 46.51-4.784 58.284 15.609s4.778 46.501-15.624 58.28l-254.937 147.188c-20.402 11.779-46.51 4.784-58.284-15.609s-4.778-46.501 15.624-58.28l254.937-147.188z" />
<glyph unicode="&#xe918;" glyph-name="close" data-tags="close" d="M977.733-27.053c23.495 23.495 23.497 61.665-0.013 85.174l-874.907 874.907c-23.509 23.509-61.679 23.508-85.174 0.013-23.516-23.516-23.518-61.686-0.008-85.195l874.907-874.907c23.509-23.509 61.679-23.508 85.195 0.008zM981.363 942.359c-23.495 23.495-61.654 23.507-85.17-0.009l-878.583-878.583c-23.516-23.516-23.504-61.675-0.009-85.17 23.516-23.516 61.676-23.528 85.191-0.012l878.583 878.583c23.516 23.516 23.504 61.675-0.012 85.191z" />
<glyph unicode="&#xe919;" glyph-name="coffee" data-tags="coffee" d="M256.202 472.702c0 0 470.792 4.375 511.285 2.188 40.518-2.188 35.038-33.885 35.038-33.885s-21.386-197.004-24.078-221.929c-2.619-23.948-42.7-21.876-42.7-21.876s-424.794-2.188-457.65 0c-32.831 2.188-31.74 28.439-31.74 28.439s-20.804 174.918-25.193 216.46c-3.419 32.396 35.038 30.604 35.038 30.604zM298.781 427.087c0 0-32.055 1.187-29.218-20.387 3.661-27.718 20.998-144.314 20.998-144.314s-0.921-17.501 26.454-18.967c27.376-1.443 381.464 0 381.464 0s33.413-1.373 35.571 14.592c2.255 16.617 20.077 147.945 20.077 147.945s4.559 21.132-29.194 22.598c-33.777 1.466-426.152-1.466-426.152-1.466zM837.818 820.364v-186.182h-651.636v186.182h651.636zM791.273 773.818h-558.545v-93.091h558.545v93.091zM784.291 820.364h-55.855l-36.957 93.091h-360.076l-36.119-93.091h-55.645l54.458 139.636h434.339l55.855-139.636zM742.865 197.306l-20.713-239.732h-420.561l-20.689 239.453c8.937-0.326 27.671-0.535 52.596-0.652l13.056-192.256h330.659l13.079 192.884c28.137 0.116 45.359 0.209 45.359 0.209s3.025-0.163 7.215 0.093zM314.694 473.251c-31.325-0.279-52.736-0.489-57.6-0.535l-13.964 161.466h60.649l10.915-160.931zM766.836 474.927c-7.68 0.372-28.625 0.535-57.716 0.582l10.938 158.673h60.509l-13.731-159.255zM511.884 382.417c-25.693 0-46.545-20.852-46.545-46.545s20.852-46.545 46.545-46.545c25.693 0 46.545 20.852 46.545 46.545s-20.852 46.545-46.545 46.545zM511.884 359.145c12.847 0 23.273-10.426 23.273-23.273s-10.426-23.273-23.273-23.273c-12.847 0-23.273 10.426-23.273 23.273s10.426 23.273 23.273 23.273z" />
<glyph unicode="&#xe91a;" glyph-name="download" data-tags="download" d="M314.544 343.54c-13.611-13.611-13.62-35.735 0.008-49.363l161.502-161.502c13.628-13.628 35.752-13.619 49.363-0.008 13.627 13.627 13.636 35.751 0.008 49.379l-161.502 161.502c-13.628 13.628-35.752 13.619-49.379-0.008zM476.069 132.674c13.611-13.611 35.741-13.614 49.361 0.006l161.492 161.492c13.62 13.62 13.617 35.75 0.006 49.361-13.627 13.627-35.757 13.63-49.377 0.010l-161.492-161.492c-13.62-13.62-13.617-35.75 0.010-49.377zM465.827 157.384c0-19.274 15.646-34.925 34.911-34.925s34.911 15.65 34.911 34.925v767.68c0 19.274-15.646 34.925-34.911 34.925s-34.911-15.65-34.911-34.925v-767.68zM966.447-28.811c0 19.248-15.644 34.87-34.917 34.87h-861.806c-19.273 0-34.917-15.622-34.917-34.87 0-19.301 15.644-34.923 34.917-34.923h861.806c19.273 0 34.917 15.622 34.917 34.923z" />
<glyph unicode="&#xe91b;" glyph-name="ellipsis-h" data-tags="ellipsis-h" d="M204.796 447.992c0-56.555-45.847-102.401-102.401-102.401s-102.401 45.847-102.401 102.401c0 56.555 45.847 102.401 102.401 102.401s102.401-45.847 102.401-102.401zM614.396 447.992c0-56.555-45.847-102.401-102.401-102.401s-102.401 45.847-102.401 102.401c0 56.555 45.847 102.401 102.401 102.401s102.401-45.847 102.401-102.401zM1023.996 447.992c0-56.555-45.847-102.401-102.401-102.401s-102.401 45.847-102.401 102.401c0 56.555 45.847 102.401 102.401 102.401s102.401-45.847 102.401-102.401z" />
<glyph unicode="&#xe91c;" glyph-name="ellipsis-v" data-tags="ellipsis-v" d="M511.992 755.204c-56.555 0-102.401 45.847-102.401 102.401s45.847 102.401 102.401 102.401c56.555 0 102.401-45.847 102.401-102.401s-45.847-102.401-102.401-102.401zM511.992 345.604c-56.555 0-102.401 45.847-102.401 102.401s45.847 102.401 102.401 102.401c56.555 0 102.401-45.847 102.401-102.401s-45.847-102.401-102.401-102.401zM511.992-63.996c-56.555 0-102.401 45.847-102.401 102.401s45.847 102.401 102.401 102.401c56.555 0 102.401-45.847 102.401-102.401s-45.847-102.401-102.401-102.401z" />
<glyph unicode="&#xe91d;" glyph-name="envelope" data-tags="envelope" d="M1024.085 128h-1024v640h1024v-640zM64.085 704v-512h4.32l272.96 256-272.96 256h-4.32zM374.805 416.64l-33.44 31.36 33.6-31.392-241.92-224.608h758.080l-241.92 224.608 33.6 31.392 272.96-256h4.32v512h-4.32l-443.68-416-137.28 128.64zM512.085 352l379.040 352h-758.080l379.040-352z" />
<glyph unicode="&#xe91e;" glyph-name="exclamation" data-tags="exclamation" d="M566.905 905.141c0 30.278-24.58 54.863-54.865 54.863s-54.865-24.586-54.865-54.863v-621.718c0-30.278 24.58-54.839 54.865-54.839s54.865 24.562 54.865 54.839v621.718zM566.829 18.329c0-30.296-24.56-54.856-54.856-54.856s-54.856 24.56-54.856 54.856c0 30.296 24.56 54.856 54.856 54.856s54.856-24.56 54.856-54.856z" />
<glyph unicode="&#xe91f;" glyph-name="exclamation-o" data-tags="exclamation-o" horiz-adv-x="299" d="M216 320h-144l-72 640h288l-72-640zM176 384l32 512h-128l32-512h64zM250.667 149.333v-213.333h-213.333v213.333h213.333zM197.333 96h-106.667v-106.667h106.667v106.667z" />
<glyph unicode="&#xe920;" glyph-name="facebook" data-tags="facebook" d="M974.124 959.982c26.2-0.989 48.852-23.481 49.858-49.858 3.902-308.065 3.902-616.183 0-924.248-1.006-26.271-23.464-48.852-49.858-49.858-308.065-3.902-616.183-3.902-924.248 0-26.2 0.989-48.852 23.481-49.858 49.858-3.902 308.065-3.902 616.183 0 924.248 1.006 26.271 23.464 48.852 49.858 49.858 308.065 3.902 616.183 3.902 924.248 0zM953.379 889.379h-882.758v-882.758h476.69v325.385h-133.297v155.012h133.297v114.052c0 132.237 80.508 204.27 198.621 204.27 39.795 0.088 79.589-1.907 119.172-6.003v-138.417h-82.097c-64.265 0-76.8-30.367-76.8-75.211v-98.692h153.6l-19.95-155.012h-133.65v-325.385h247.172v882.758z" />
<glyph unicode="&#xe921;" glyph-name="file" data-tags="file" horiz-adv-x="853" d="M853.332-64h-853.333v1024h682.667l170.667-170.667v-853.333zM767.999 21.333v711.104l-136.533 142.229h-546.133v-853.333h682.667zM597.332 704h170.667v-85.333h-256v256h85.333v-170.667z" />
<glyph unicode="&#xe922;" glyph-name="file-image" data-tags="file-image" horiz-adv-x="853" d="M853.331-64h-853.333v1024h682.667l170.667-170.667v-853.333zM767.998 21.333v711.104l-136.533 142.229h-546.133v-853.333h682.667zM280.428 354c-12.491 12.491-32.762 12.488-45.252-0.003l-97.373-97.373c-12.49-12.49-12.493-32.761-0.003-45.252s32.762-12.488 45.252 0.003l97.373 97.373c12.49 12.49 12.493 32.761 0.003 45.252zM377.742 211.369c12.491 12.491 12.488 32.762-0.003 45.252l-97.373 97.373c-12.49 12.49-32.761 12.493-45.252 0.003s-12.488-32.762 0.003-45.252l97.373-97.373c12.49-12.49 32.761-12.493 45.252-0.003zM546.118 425.57c-12.491 12.491-32.774 12.476-45.257-0.007l-168.957-168.957c-12.483-12.483-12.475-32.743 0.016-45.234s32.751-12.498 45.234-0.016l168.957 168.957c12.483 12.483 12.498 32.766 0.007 45.257zM715.53 211.379c12.491 12.491 12.476 32.774-0.007 45.257l-168.957 168.957c-12.483 12.483-32.743 12.475-45.234-0.016s-12.498-32.751-0.016-45.234l168.957-168.957c12.483-12.483 32.766-12.498 45.257-0.007zM320.001 554.652c0-35.338-28.647-63.986-63.986-63.986s-63.986 28.647-63.986 63.986c0 35.338 28.647 63.986 63.986 63.986s63.986-28.647 63.986-63.986zM597.331 704h170.667v-85.333h-256v256h85.333v-170.667z" />
<glyph unicode="&#xe923;" glyph-name="files-text" data-tags="files-text" horiz-adv-x="875" d="M703.097 577.765c0 10.557-8.562 19.13-19.111 19.13h-389.771c-10.549 0-19.111-8.573-19.111-19.13 0-10.531 8.562-19.103 19.111-19.103h389.771c10.549 0 19.111 8.573 19.111 19.103zM703.097 424.876c0 10.557-8.562 19.13-19.111 19.13h-389.771c-10.549 0-19.111-8.573-19.111-19.13 0-10.531 8.562-19.103 19.111-19.103h389.771c10.549 0 19.111 8.573 19.111 19.103zM703.097 271.988c0 10.557-8.562 19.13-19.111 19.13h-389.771c-10.549 0-19.111-8.573-19.111-19.13 0-10.531 8.562-19.103 19.111-19.103h389.771c10.549 0 19.111 8.573 19.111 19.103zM703.097 348.432c0 10.557-8.562 19.13-19.111 19.13h-389.771c-10.549 0-19.111-8.573-19.111-19.13 0-10.531 8.562-19.103 19.111-19.103h389.771c10.549 0 19.111 8.573 19.111 19.103zM703.097 501.321c0 10.557-8.562 19.13-19.111 19.13h-389.771c-10.549 0-19.111-8.573-19.111-19.13 0-10.531 8.562-19.103 19.111-19.103h389.771c10.549 0 19.111 8.573 19.111 19.103zM496.508 654.21c0 10.557-8.562 19.13-19.111 19.13h-183.19c-10.549 0-19.111-8.573-19.111-19.13 0-10.531 8.562-19.103 19.111-19.103h183.19c10.549 0 19.111 8.573 19.111 19.103zM871.322 42.667h-764.444v917.333h611.555l152.889-152.889v-764.444zM794.877 119.112v637.030l-122.311 127.414h-489.244v-764.444h611.555zM641.989 730.667h152.889v-76.444h-229.333v229.333h76.444v-152.889zM512.006-0.006v-64h-512v512h64v-448h448z" />
<glyph unicode="&#xe924;" glyph-name="file-text" data-tags="file-text" horiz-adv-x="853" d="M665.548 533.319c0 11.785-9.557 21.354-21.333 21.354h-435.093c-11.776 0-21.333-9.569-21.333-21.354 0-11.755 9.557-21.325 21.333-21.325h435.093c11.776 0 21.333 9.569 21.333 21.325zM665.548 362.652c0 11.785-9.557 21.354-21.333 21.354h-435.093c-11.776 0-21.333-9.569-21.333-21.354 0-11.755 9.557-21.325 21.333-21.325h435.093c11.776 0 21.333 9.569 21.333 21.325zM665.548 191.986c0 11.785-9.557 21.354-21.333 21.354h-435.093c-11.776 0-21.333-9.569-21.333-21.354 0-11.755 9.557-21.325 21.333-21.325h435.093c11.776 0 21.333 9.569 21.333 21.325zM665.548 277.319c0 11.785-9.557 21.354-21.333 21.354h-435.093c-11.776 0-21.333-9.569-21.333-21.354 0-11.755 9.557-21.325 21.333-21.325h435.093c11.776 0 21.333 9.569 21.333 21.325zM665.548 447.986c0 11.785-9.557 21.354-21.333 21.354h-435.093c-11.776 0-21.333-9.569-21.333-21.354 0-11.755 9.557-21.325 21.333-21.325h435.093c11.776 0 21.333 9.569 21.333 21.325zM434.936 618.652c0 11.785-9.557 21.354-21.333 21.354h-204.491c-11.776 0-21.333-9.569-21.333-21.354 0-11.755 9.557-21.325 21.333-21.325h204.491c11.776 0 21.333 9.569 21.333 21.325zM853.333-64h-853.333v1024h682.667l170.667-170.667v-853.333zM768 21.333v711.104l-136.533 142.229h-546.133v-853.333h682.667zM597.333 704h170.667v-85.333h-256v256h85.333v-170.667z" />
<glyph unicode="&#xe925;" glyph-name="filter" data-tags="filter" d="M377.813-21.44v364.267l-370.56 550.72c-14.933 17.344-8.533 64.981 35.413 66.453h938.453c25.387 0 57.813-30.101 35.2-66.453l-370.347-550.72v-226.133c0-13.376-6.187-25.92-16.853-34.069l-183.040-138.133c-10.453-11.712-62.933-19.435-68.267 34.069zM463.147 64.021l97.707 73.792v163.051h-97.707v-236.843zM463.147 356.587c0-0.128 0-0.256 0-0.405v-0.384c0 0.128 0 0.256 0 0.384v0.405zM561.067 356.587c0-0.256-0.213-0.533-0.213-0.789l0.213 0.384v0.405zM463.147 357.397c0 0.128 0 0.256 0 0.384 0-0.256 0-0.512 0-0.789v0.405zM561.067 357.397c0 2.731 0.427 5.397 1.067 8.021 0 0.448 0.213 0.896 0.213 1.323 0-0.427-0.213-0.875-0.213-1.323-0.64-2.752-1.067-5.568-1.067-8.427v0.405zM463.147 358.976c-0.213 0.811-0.213 1.6-0.427 2.389v0.768c0-0.256 0-0.512 0-0.768 0.213-0.661 0.213-1.323 0.213-1.984l0.213-0.405c0-0.128 0-0.256 0-0.384v0.384zM462.507 363.285c0 0.149 0 0.277 0 0.405-0.427 2.048-1.067 4.075-1.707 6.059v0.363c0.64-1.963 1.067-3.989 1.493-6.037l0.213-0.384c0-0.256 0-0.533 0-0.789v0.384zM562.56 367.509c0 0.107 0 0.235 0.213 0.363-0.213-0.256-0.213-0.491-0.213-0.747v0.384zM562.987 368.619c0 0.128 0 0.256 0 0.384 0-0.256-0.213-0.491-0.213-0.747l0.213 0.363zM563.2 369.408c0.213 0.917 0.64 1.813 1.067 2.709 0.213 0.533 0.427 1.088 0.64 1.621-0.213-0.533-0.427-1.088-0.64-1.621-0.427-0.896-0.853-1.792-1.067-2.709zM460.373 370.837c-0.427 1.365-1.067 2.688-1.707 3.968l-0.213 0.363c-0.213 0.576-0.64 1.152-0.853 1.728 0.427-0.683 0.64-1.387 1.067-2.091 0.64-1.408 1.28-2.859 1.92-4.331l-0.213 0.363zM565.333 374.464c0.213 0.619 0.64 1.216 0.853 1.835 0.427 0.555 0.64 1.088 1.067 1.643-0.427-0.555-0.64-1.088-1.067-1.643-0.427-0.725-0.64-1.451-1.067-2.197l0.213 0.363zM457.173 377.6c0 0.107-0.213 0.213-0.213 0.341 0.213-0.235 0.213-0.469 0.427-0.704l-0.213 0.363zM456.533 378.603c-0.213 0.235-0.213 0.448-0.427 0.683 0.213-0.341 0.427-0.683 0.64-1.024l-0.213 0.341zM568.107 379.285c-0.213-0.235-0.427-0.448-0.427-0.683l0.427 0.683zM900.907 874.731h-778.027l328.533-488.533h121.173l328.32 488.533z" />
<glyph unicode="&#xe926;" glyph-name="gear" data-tags="gear" d="M746.352 143.872l-0.912-0.704-0.512-0.384-0.864-0.656-0.176-0.144-0.096-0.080c-0.384-0.288-0.752-0.56-1.136-0.848l-0.016-0.016-0.080-0.064-0.768-0.576-0.272-0.192-0.128-0.096-0.16-0.128-0.352-0.272-0.576-0.416-0.16-0.112-0.064-0.048c-0.384-0.288-0.768-0.576-1.152-0.848l-0.032-0.032-0.128-0.096-0.656-0.48-0.336-0.24-0.144-0.112-0.144-0.096-0.304-0.224-0.704-0.512-0.112-0.080-0.032-0.016c-0.384-0.288-0.784-0.56-1.168-0.848l-0.064-0.048-0.144-0.096-0.576-0.416-0.4-0.272-0.144-0.112-0.128-0.080-0.256-0.192-0.88-0.624h-0.016c-0.4-0.288-0.784-0.56-1.184-0.832l-0.096-0.064-0.16-0.112-0.496-0.352-0.448-0.32-0.176-0.112-0.096-0.064c-0.784-0.544-1.568-1.072-2.352-1.616l-0.112-0.080-0.176-0.112-0.416-0.288-0.528-0.352-0.176-0.128-0.080-0.048c-0.4-0.272-0.8-0.528-1.184-0.8l-0.032-0.016-0.112-0.064-0.752-0.512-0.432-0.288-0.528-0.336-0.608-0.4-0.176-0.112-0.064-0.048c-0.384-0.256-0.784-0.512-1.168-0.768l-0.064-0.048-0.192-0.112-0.608-0.4-0.336-0.208-0.176-0.128-0.176-0.112-0.272-0.176-0.704-0.448-0.16-0.112-0.048-0.016c-0.4-0.256-0.784-0.496-1.168-0.752l-0.112-0.064-0.72-0.464-0.368-0.224-0.224-0.144-0.16-0.096-0.224-0.144-0.8-0.496-0.144-0.096-0.032-0.016c-0.384-0.24-0.768-0.464-1.152-0.704l-0.144-0.096-0.256-0.16-0.4-0.24-0.416-0.256-0.256-0.16-0.32-0.192-0.944-0.576-0.32-0.192-0.704-0.416-0.192-0.128-0.192-0.112-0.272-0.16-0.32-0.192-0.448-0.272-0.304-0.176-0.144-0.096c-0.368-0.208-0.736-0.432-1.104-0.64l-0.096-0.064-0.352-0.208-0.528-0.304-0.224-0.128-0.256-0.144-0.272-0.16-0.24-0.144-0.464-0.272-0.368-0.208-0.128-0.080c-0.368-0.208-0.72-0.416-1.088-0.624l-0.144-0.080-0.4-0.224-0.4-0.24-0.24-0.128-0.32-0.192-0.272-0.144-0.176-0.096-0.464-0.272-0.448-0.256-0.4-0.208-0.704-0.4-0.064-0.032-0.208-0.112-0.416-0.24-0.32-0.176-0.24-0.128-0.384-0.224-0.272-0.144-0.112-0.064-0.448-0.24-0.544-0.304-0.592-0.32-0.432-0.24-0.096-0.032-0.256-0.144-0.432-0.24-0.24-0.128-0.256-0.128-0.464-0.256-0.24-0.128-0.048-0.032-0.352-0.176-0.736-0.4-0.656-0.336-0.304-0.16-0.096-0.048-0.336-0.192-0.432-0.224-0.16-0.080-0.24-0.128c-0.864-0.448-1.728-0.896-2.608-1.344l-0.736-0.368-0.416-0.224-0.096-0.048-0.208-0.096-0.688-0.352-0.144-0.064 133.296-75.344 113.136 113.136-75.344 133.296c8.272 16.432 15.392 33.536 21.264 51.216l147.472 40.96v160l-147.472 40.96c-5.872 17.68-12.992 34.784-21.264 51.216l75.344 133.296-113.136 113.136-133.296-75.344 0.144-0.064 0.688-0.352 0.208-0.096 0.096-0.048 0.416-0.224 0.4-0.192 0.112-0.064 0.24-0.128c0.864-0.432 1.712-0.88 2.576-1.328l0.448-0.224 0.4-0.208 0.32-0.176 0.112-0.064 0.368-0.192 0.592-0.304 0.624-0.336 0.464-0.24 0.064-0.032 0.224-0.128 0.448-0.24 0.544-0.288 0.4-0.224 0.24-0.128 0.112-0.048 0.528-0.288 0.496-0.272 0.464-0.256 0.528-0.288 0.128-0.080 0.256-0.128 0.352-0.208 0.272-0.144 0.352-0.192 0.384-0.224 0.192-0.096 0.080-0.048 0.88-0.496 0.224-0.112 0.384-0.224 0.528-0.304 0.192-0.096 0.256-0.144 0.288-0.176 0.272-0.144 0.432-0.256 0.368-0.208 0.128-0.080c0.368-0.208 0.736-0.416 1.104-0.624l0.128-0.080 0.336-0.192 0.496-0.288 0.256-0.144 0.256-0.16 0.24-0.128 0.24-0.144 0.56-0.32 0.4-0.24c0.368-0.224 0.752-0.448 1.12-0.672l0.144-0.080 0.304-0.176 0.448-0.272 0.32-0.192 0.272-0.16 0.192-0.112 0.192-0.128 0.72-0.432 0.224-0.128 0.064-0.032 0.96-0.592 0.32-0.192 0.256-0.16 0.416-0.256 0.4-0.24 0.256-0.16 0.16-0.096c0.368-0.24 0.752-0.464 1.136-0.704l0.032-0.016 0.176-0.112 0.768-0.48 0.208-0.128 0.176-0.112 0.224-0.144 0.368-0.224 0.48-0.304 0.24-0.16 0.112-0.080c0.384-0.24 0.768-0.48 1.152-0.72l0.064-0.032 0.208-0.144 0.656-0.416 0.256-0.176 0.192-0.112 0.208-0.128 0.304-0.208 0.576-0.368 0.224-0.144 0.080-0.048c0.384-0.256 0.752-0.512 1.136-0.752l0.080-0.064 0.224-0.144 0.56-0.368 0.32-0.208 0.208-0.128 0.176-0.112 0.256-0.176 0.688-0.464 0.176-0.112 0.048-0.032c0.384-0.256 0.752-0.512 1.136-0.768l0.112-0.064 0.224-0.16 0.864-0.576 0.208-0.144 0.144-0.096 0.208-0.144 0.864-0.592 0.064-0.048h0.016c0.384-0.272 0.768-0.528 1.136-0.8l0.128-0.080 0.624-0.432 0.448-0.32 0.208-0.144 0.128-0.080c0.368-0.256 0.752-0.528 1.136-0.8l0.016-0.016 0.112-0.080 0.784-0.544 0.224-0.16 0.16-0.112 0.192-0.128 0.352-0.256 0.512-0.368 0.208-0.144 0.096-0.064c0.368-0.272 0.752-0.544 1.12-0.816l0.048-0.032 0.816-0.592 0.272-0.208 0.176-0.112 0.176-0.128 0.304-0.224 0.592-0.448 0.192-0.128 0.048-0.048c0.384-0.272 0.752-0.544 1.12-0.816l0.080-0.064 0.192-0.144 0.544-0.384 0.336-0.256 0.176-0.144 0.16-0.112 0.24-0.176 0.848-0.64 0.032-0.016c0.368-0.288 0.736-0.56 1.104-0.848l0.112-0.080 0.192-0.144 0.448-0.352 0.4-0.288 0.192-0.16 0.128-0.096c0.368-0.288 0.736-0.56 1.104-0.848l54.144 40.944 56.576-56.576-40.944-54.144c0.288-0.368 0.576-0.736 0.848-1.104l0.24-0.32 0.304-0.4 0.368-0.464 0.128-0.176 0.080-0.096c0.288-0.384 0.56-0.752 0.848-1.136l0.016-0.016 0.048-0.080 0.592-0.768 0.192-0.272 0.096-0.128 0.128-0.16 0.272-0.352 0.432-0.592 0.096-0.144 0.048-0.064c0.288-0.384 0.576-0.768 0.864-1.152l0.016-0.032 0.080-0.112 0.496-0.672 0.24-0.352 0.112-0.128 0.096-0.128 0.224-0.32 0.528-0.736 0.064-0.080 0.016-0.016c0.288-0.4 0.56-0.8 0.848-1.184l0.048-0.064 0.080-0.128 0.432-0.592 0.288-0.4 0.096-0.144 0.080-0.112c0.56-0.784 1.104-1.568 1.664-2.368l0.048-0.080 0.096-0.144 0.368-0.512 0.32-0.464 0.112-0.16 0.064-0.080c0.544-0.8 1.088-1.584 1.616-2.384l0.080-0.096 0.096-0.16 0.304-0.432 0.368-0.56 0.112-0.144 0.048-0.080c0.256-0.4 0.528-0.8 0.8-1.2l0.016-0.016 0.032-0.064 0.544-0.8 0.192-0.304 0.096-0.128 0.096-0.16 0.24-0.368 0.432-0.64 0.080-0.144 0.048-0.048c0.256-0.4 0.512-0.8 0.784-1.2l0.032-0.048 0.096-0.16 0.416-0.64 0.224-0.352 0.112-0.16 0.096-0.16 0.192-0.288 0.464-0.736 0.096-0.128 0.016-0.032c0.256-0.4 0.512-0.8 0.752-1.2l0.192-0.288 0.336-0.528 0.24-0.4 0.224-0.336 0.144-0.24 0.528-0.864 0.064-0.080v-0.016c0.24-0.4 0.496-0.784 0.736-1.184l0.080-0.128 0.144-0.224 0.256-0.432 0.272-0.432 0.144-0.24 0.080-0.144c0.24-0.384 0.48-0.768 0.72-1.168l0.016-0.032 0.096-0.176 0.464-0.768 0.128-0.208 0.112-0.176 0.144-0.256 0.208-0.336 0.288-0.48 0.16-0.272 0.080-0.128c0.224-0.384 0.448-0.768 0.672-1.136l0.048-0.080 0.176-0.304 0.336-0.576 0.144-0.24 0.128-0.24 0.16-0.256 0.144-0.256 0.288-0.496 0.192-0.336 0.080-0.128c0.208-0.368 0.416-0.736 0.624-1.104l0.080-0.128 0.208-0.368 0.256-0.432 0.144-0.272 0.176-0.288 0.144-0.256 0.096-0.192 0.288-0.512 0.24-0.4 0.128-0.256 0.48-0.848 0.048-0.080 0.096-0.192 0.224-0.384 0.192-0.352 0.144-0.272 0.208-0.352 0.128-0.256 0.080-0.128 0.544-0.992 0.288-0.528 0.272-0.496 0.176-0.352 0.224-0.416 0.144-0.256 0.144-0.272 0.24-0.448 0.128-0.24 0.032-0.048 0.224-0.432 0.352-0.656 0.32-0.608 0.176-0.352 0.064-0.096 0.176-0.336 0.208-0.416 0.096-0.176 0.128-0.256c0.448-0.848 0.896-1.712 1.328-2.576l0.128-0.24 0.064-0.112 0.192-0.4 0.208-0.416 0.064-0.096 0.448-0.896 0.064-0.144-0.576 1.136-0.4 0.816-0.192 0.352c-0.432 0.864-0.88 1.728-1.328 2.576l-0.224 0.432-0.384 0.752-0.592 1.12-0.576 1.072-0.368 0.688-0.288 0.528-0.352 0.672-0.608 1.104-0.624 1.136-0.336 0.608-0.336 0.624-0.32 0.576-0.608 1.088-0.672 1.2-0.32 0.544-0.4 0.704-0.288 0.496-0.624 1.104-0.704 1.216-0.288 0.496-0.704 1.2-0.672 1.136-0.24 0.4-0.496 0.816-0.256 0.432-0.704 1.184-0.72 1.168-0.224 0.384-0.528 0.864-0.224 0.352-0.736 1.184-0.736 1.2-0.224 0.336-0.768 1.216-0.752 1.2-0.976 1.504-0.768 1.2-0.784 1.2-1.728 2.592-0.848 1.28-0.832 1.216-0.176 0.256-0.8 1.184-0.816 1.2-0.176 0.24-0.832 1.2-0.848 1.2-0.816 1.168-0.176 0.256-1.696 2.368-0.832 1.152-0.208 0.256-0.832 1.168-0.864 1.152-0.848 1.152-0.224 0.288-1.696 2.272-0.208 0.272-0.672 0.864-0.24 0.32-0.848 1.104-40.304-53.296c24.896-36.192 42.528-77.728 50.832-122.528l133.344-18.528v-80l-67.152-9.328-0.048-0.448-0.096-0.704-0.016-0.176-0.048-0.288-0.048-0.368-0.048-0.32-0.064-0.496-0.048-0.432-0.032-0.176c-0.064-0.416-0.112-0.848-0.176-1.264l-0.016-0.176-0.064-0.416-0.080-0.512-0.048-0.336-0.048-0.352-0.032-0.256-0.032-0.208-0.128-0.784-0.048-0.352-0.048-0.336-0.128-0.816-0.032-0.208-0.032-0.256-0.048-0.336-0.064-0.352-0.080-0.528-0.064-0.384-0.016-0.16c-0.080-0.432-0.144-0.864-0.208-1.296l-0.032-0.144-0.064-0.4-0.080-0.528-0.064-0.352-0.064-0.32-0.032-0.256-0.032-0.208-0.144-0.816-0.048-0.32-0.064-0.304-0.144-0.848-0.032-0.208-0.048-0.24-0.064-0.336-0.064-0.352-0.080-0.512-0.080-0.4-0.016-0.16c-0.080-0.416-0.16-0.848-0.24-1.28l-0.032-0.144-0.064-0.4-0.112-0.528-0.048-0.32-0.064-0.336-0.064-0.272-0.032-0.208-0.144-0.752-0.064-0.368-0.080-0.352-0.144-0.784-0.048-0.192-0.048-0.256-0.064-0.352-0.064-0.336-0.096-0.48-0.096-0.416-0.032-0.176c-0.080-0.4-0.16-0.816-0.256-1.232l-0.032-0.16-0.096-0.448-0.096-0.48-0.064-0.288-0.080-0.368-0.048-0.288-0.048-0.176-0.128-0.64-0.112-0.48-0.096-0.464-0.144-0.672-0.096-0.432-0.096-0.4-0.064-0.288-0.080-0.4-0.112-0.48-0.048-0.208c-0.080-0.384-0.176-0.784-0.256-1.168l-0.048-0.192-0.128-0.528-0.080-0.384-0.064-0.24-0.096-0.416-0.080-0.336-0.032-0.128-0.096-0.464-0.16-0.64-0.16-0.672-0.112-0.464-0.016-0.096-0.080-0.32-0.112-0.48-0.064-0.208-0.064-0.304c-0.224-0.928-0.464-1.856-0.704-2.768l-0.064-0.272-0.032-0.16-0.128-0.48-0.096-0.4-0.080-0.32-0.224-0.832-0.256-0.976-0.032-0.16-0.016-0.032-0.096-0.384-0.16-0.56-0.032-0.128-0.048-0.16c-0.272-1.024-0.544-2.032-0.816-3.040l-0.032-0.112-0.016-0.048c-0.4-1.456-0.816-2.896-1.232-4.336v-0.016c-1.376-4.736-2.832-9.456-4.384-14.112v0c1.552 4.656 3.008 9.376 4.384 14.112v0.016c0.416 1.44 0.832 2.88 1.232 4.336l0.048 0.16c0.272 1.008 0.544 2.016 0.816 3.040l0.080 0.288 0.256 0.944 0.048 0.192 0.256 0.944 0.224 0.864 0.080 0.32 0.224 0.88 0.096 0.432c0.24 0.928 0.48 1.84 0.704 2.768l0.128 0.512 0.192 0.8 0.128 0.56 0.32 1.312 0.128 0.592 0.176 0.752 0.144 0.624 0.176 0.72 0.256 1.168 0.16 0.688 0.144 0.688 0.16 0.688 0.176 0.816 0.096 0.448 0.112 0.496 0.176 0.816 0.128 0.656 0.16 0.768 0.128 0.608 0.256 1.232 0.128 0.592 0.16 0.816 0.112 0.608 0.192 0.976 0.064 0.352 0.080 0.368 0.176 0.96 0.128 0.608 0.16 0.848 0.096 0.544 0.24 1.28 0.096 0.56 0.144 0.864 0.112 0.576 0.224 1.344 0.064 0.336 0.176 1.024 0.096 0.576 0.144 0.88 0.096 0.544 0.208 1.296 0.080 0.544 0.144 0.88 0.080 0.592 0.16 1.024 0.048 0.336 0.048 0.352 0.16 0.992 0.080 0.608 0.128 0.848 0.080 0.592 0.176 1.264 0.080 0.608 0.112 0.816 0.096 0.656 0.112 0.88 0.048 0.448-66.192-9.2c-8.304-44.8-25.936-86.336-50.832-122.528l40.304-53.296 0.848 1.104 0.256 0.32 0.64 0.848 0.224 0.304 0.848 1.104 0.112 0.16 0.72 0.96 0.256 0.336 0.64 0.88 0.208 0.272 0.816 1.12 0.176 0.24 0.672 0.896 0.24 0.352 0.672 0.912 0.16 0.224 0.816 1.12 0.208 0.304 0.608 0.864 0.256 0.352 0.704 1.008 0.096 0.128 0.8 1.136 0.224 0.336 0.608 0.848 0.224 0.352 0.784 1.136 0.064 0.080 0.736 1.072 0.24 0.368 0.576 0.848 0.224 0.336 0.768 1.136 0.144 0.224 0.624 0.944 0.832 1.248 0.208 0.32 0.736 1.136 0.208 0.32 0.56 0.864 0.272 0.4 0.576 0.896 0.176 0.288 0.72 1.136 0.24 0.384 0.512 0.816 0.272 0.416 0.592 0.96 0.144 0.224 0.016 0.032 0.688 1.104 0.256 0.432 0.48 0.784 0.272 0.432 0.656 1.088 0.032 0.048 0.176 0.304 0.544 0.88 0.272 0.48 0.448 0.752 0.288 0.448 0.656 1.12 0.24 0.432 0.448 0.752 0.304 0.528 0.416 0.72 0.288 0.48 0.624 1.088 0.304 0.528 0.384 0.672 0.32 0.576 0.384 0.672 0.288 0.512 0.112 0.208 0.496 0.864 0.32 0.608 0.336 0.592 0.336 0.624 0.352 0.624 0.272 0.512 0.288 0.512 0.32 0.592 0.352 0.672 0.288 0.528 0.368 0.688 0.256 0.48 0.32 0.592 0.352 0.672 0.24 0.464 0.384 0.72 0.224 0.448c0.448 0.848 0.896 1.712 1.328 2.56l0.192 0.368 0.4 0.816 0.176 0.32 0.4 0.816-0.064-0.144-0.448-0.896-0.064-0.096-0.208-0.416-0.192-0.4-0.064-0.112-0.128-0.256c-0.432-0.848-0.88-1.712-1.328-2.56l-0.224-0.448-0.208-0.4-0.176-0.32-0.064-0.112-0.176-0.352-0.32-0.608-0.352-0.656-0.224-0.432-0.032-0.048-0.128-0.24-0.24-0.448-0.144-0.272-0.144-0.256-0.224-0.416-0.176-0.352-0.272-0.496-0.288-0.528-0.544-0.992-0.080-0.128-0.128-0.256-0.208-0.368-0.144-0.256-0.192-0.336-0.224-0.4-0.096-0.208-0.048-0.064-0.448-0.8-0.16-0.304-0.24-0.416-0.288-0.496-0.096-0.176-0.144-0.272-0.176-0.304-0.144-0.256-0.24-0.416-0.224-0.384-0.080-0.144c-0.208-0.368-0.416-0.72-0.624-1.088l-0.080-0.128-0.208-0.352-0.272-0.48-0.144-0.24-0.16-0.272-0.144-0.256-0.128-0.224-0.32-0.528-0.192-0.352-0.048-0.080c-0.224-0.384-0.448-0.752-0.656-1.12l-0.096-0.144-0.192-0.304-0.256-0.448-0.192-0.304-0.16-0.288-0.112-0.192-0.128-0.192-0.416-0.688-0.144-0.256-0.064-0.096-0.56-0.928-0.192-0.32-0.176-0.272-0.24-0.4-0.24-0.384-0.16-0.272-0.192-0.32-0.592-0.944-0.032-0.064-0.128-0.192-0.592-0.96-0.112-0.176-0.16-0.24-0.208-0.352-0.304-0.464-0.24-0.384c-0.24-0.384-0.48-0.752-0.72-1.136l-0.032-0.064-0.144-0.224-0.416-0.64-0.16-0.256-0.128-0.192-0.144-0.208-0.192-0.304-0.368-0.56-0.144-0.24-0.064-0.080c-0.24-0.384-0.496-0.752-0.736-1.136l-0.064-0.080-0.144-0.24-0.368-0.544-0.208-0.32-0.128-0.208-0.128-0.176-0.16-0.256-0.464-0.688-0.112-0.176-0.032-0.048c-0.256-0.384-0.512-0.752-0.768-1.136l-0.064-0.112-0.16-0.224-0.32-0.48-0.256-0.368-0.144-0.224-0.096-0.144-0.144-0.208-0.592-0.864-0.048-0.064-0.016-0.016c-0.256-0.384-0.512-0.768-0.784-1.136l-0.080-0.128-0.144-0.224-0.288-0.4-0.32-0.448-0.144-0.208-0.080-0.128c-0.256-0.368-0.528-0.752-0.8-1.136l-0.016-0.016-0.080-0.112-0.544-0.784-0.16-0.224-0.112-0.16-0.144-0.192-0.24-0.352-0.368-0.512-0.144-0.208-0.064-0.096c-0.272-0.368-0.544-0.752-0.816-1.12l-0.032-0.048-0.592-0.816-0.208-0.272-0.112-0.176-0.128-0.176-0.224-0.304-0.448-0.592-0.128-0.192-0.048-0.048c-0.272-0.384-0.544-0.752-0.816-1.12l-0.064-0.080-0.144-0.192-0.384-0.544-0.256-0.336-0.144-0.176-0.112-0.16-0.176-0.24-0.544-0.72-0.096-0.128-0.016-0.032c-0.288-0.368-0.56-0.736-0.848-1.104l-0.080-0.112-0.144-0.192-0.352-0.448-0.288-0.4-0.16-0.192-0.096-0.128c-0.288-0.368-0.56-0.736-0.848-1.104l40.944-54.144-56.576-56.576-107.44 81.248c-36.192-24.896-77.728-42.528-122.528-50.832l-9.2-66.192-9.328-67.152h-80l-18.528 133.344c-44.8 8.304-86.336 25.936-122.528 50.832l-53.296-40.304 1.104-0.848 0.32-0.256 0.848-0.64 0.304-0.224 1.104-0.848 0.16-0.112 0.96-0.72 0.336-0.256 0.88-0.64 0.272-0.208 1.36-0.992 0.896-0.672 0.352-0.24 0.912-0.672 0.224-0.16 1.12-0.816 0.304-0.208 0.864-0.624 0.352-0.24 1.008-0.704 0.128-0.096 1.136-0.8 0.336-0.224 0.864-0.608 0.336-0.224 1.136-0.8 0.080-0.048 1.072-0.736 0.352-0.24 1.2-0.8 1.136-0.768 0.224-0.144 0.944-0.64 0.384-0.24 0.88-0.576 0.304-0.208 1.136-0.752 0.304-0.192 0.88-0.576 0.4-0.24 1.184-0.768 1.152-0.72 0.352-0.24 0.848-0.528 0.4-0.256 2.736-1.696 0.816-0.496 1.536-0.944h0.016l0.272-0.16 0.912-0.56 0.464-0.272 0.768-0.464 0.448-0.256 1.52-0.912 1.296-0.752 0.752-0.432 0.464-0.272 1.104-0.624 0.496-0.288 0.704-0.4 0.544-0.32 0.72-0.4 0.48-0.272 0.128-0.064 0.96-0.544 0.576-0.32 0.624-0.336 0.608-0.336 0.656-0.368 0.48-0.256 0.48-0.272 0.64-0.336 0.64-0.352 0.544-0.288 0.672-0.368 0.528-0.272 0.56-0.304 0.656-0.336 1.2-0.64 0.448-0.224c0.864-0.448 1.712-0.896 2.576-1.328l0.352-0.192 0.816-0.416 0.304-0.144 0.832-0.416c17.2-8.656 35.152-16.064 53.728-22.080l0.256-0.096 1.392-0.448 1.44-0.448 0.16-0.048 1.28-0.416 4.72-1.424 1.488-0.432 0.096-0.032 1.36-0.4 0.176-0.048 1.472-0.416 1.456-0.416 1.616-0.432v-0.016l1.52-0.416 1.488-0.384 0.144-0.048 1.488-0.384 1.472-0.384 0.176-0.048 1.44-0.368h0.016l1.536-0.384 1.488-0.352 0.16-0.048 3.168-0.752 1.408-0.32 1.584-0.368 0.112-0.016 1.36-0.304 3.168-0.688 0.256-0.048 1.312-0.288 1.632-0.336 0.224-0.032 1.248-0.256 1.76-0.352 1.424-0.272 0.384-0.064 2.848-0.528 0.4-0.064 1.040-0.192 0.48-0.080 1.2-0.208 0.176-0.032 0.24-0.048 1.696-0.288 0.88-0.144 0.56-0.096 1.264-0.192 0.64-0.112 0.736-0.112 0.704-0.112 0.72-0.112 0.592-0.080 0.656-0.096 0.608-0.096 0.816-0.112 0.512-0.080c0.992-0.144 1.968-0.272 2.96-0.416l0.336-0.032 1.008-0.144 0.096-0.016 1.072-0.128-1.616 0.208-0.896 0.112c-0.992 0.144-1.968 0.272-2.96 0.416l-4.208 0.624-3.2 0.512-0.928 0.144-2.272 0.384-1.152 0.208-1.136 0.208-0.912 0.16-1.488 0.272-1.024 0.192-0.832 0.144c-0.96 0.192-1.92 0.368-2.864 0.56l-0.832 0.16-0.96 0.192c-0.48 0.112-0.976 0.208-1.472 0.304l-0.96 0.208-0.768 0.16c-0.992 0.208-1.968 0.416-2.944 0.64l-0.784 0.176-0.912 0.192c-0.512 0.112-1.008 0.24-1.52 0.352l-0.928 0.208-0.736 0.176c-0.992 0.224-1.984 0.464-2.976 0.704l-0.752 0.192-0.896 0.208c-0.512 0.128-1.024 0.256-1.536 0.384l-0.912 0.24-0.72 0.176c-0.976 0.256-1.968 0.512-2.96 0.768l-0.752 0.208-0.88 0.224c-0.496 0.144-1.008 0.288-1.52 0.416l-0.912 0.256-0.704 0.192c-0.976 0.272-1.952 0.56-2.928 0.832l-0.752 0.224-0.88 0.256c-0.496 0.144-0.992 0.288-1.488 0.432l-0.912 0.272-0.72 0.224c-0.96 0.288-1.92 0.576-2.864 0.864l-0.784 0.24-0.88 0.288c-0.48 0.144-0.96 0.304-1.44 0.448l-0.928 0.304-0.72 0.24c-0.848 0.272-1.68 0.544-2.512 0.816l40.96-147.472h160l40.96 147.472c-0.816-0.272-1.648-0.544-2.464-0.816l-0.16-0.048-0.176-0.064-0.432-0.128-0.72-0.224-0.176-0.064-0.080-0.032c-0.448-0.144-0.896-0.272-1.344-0.416l-0.336-0.112-0.592-0.192-0.448-0.128-0.24-0.080-0.176-0.048-0.224-0.080-1.072-0.32-0.24-0.080-0.88-0.256-0.24-0.080-0.224-0.064-0.272-0.080-0.352-0.112-0.576-0.176-0.32-0.096-0.128-0.032c-0.416-0.128-0.832-0.24-1.248-0.368l-0.16-0.048-0.352-0.096-0.496-0.144-0.352-0.112-0.56-0.16-0.176-0.048-0.8-0.224-0.336-0.096-0.384-0.112-0.688-0.192-0.192-0.048-0.272-0.080-0.352-0.096-0.272-0.080-0.464-0.128-0.448-0.128-0.16-0.032c-0.4-0.112-0.8-0.224-1.184-0.32l-0.208-0.064-0.448-0.128-0.4-0.096-0.688-0.192-0.288-0.064-0.128-0.048-0.592-0.144-0.544-0.144-0.576-0.144-0.512-0.144-0.144-0.032-0.32-0.080-0.416-0.112-0.224-0.048-0.368-0.096-0.544-0.144-0.48-0.112-0.832-0.208h-0.016l-0.224-0.064-0.544-0.128-0.336-0.080-0.224-0.064-0.464-0.112-0.32-0.080-0.096-0.016-0.416-0.096-1.44-0.352-0.384-0.080-0.096-0.032-0.368-0.080-0.464-0.112-0.192-0.048-0.288-0.064c-0.944-0.208-1.872-0.432-2.816-0.64l-0.256-0.048-0.176-0.048-0.88-0.192-0.064-0.016-0.288-0.064-0.848-0.176-0.848-0.192-0.272-0.048-0.064-0.016-0.4-0.080-0.656-0.144-0.24-0.048c-0.976-0.208-1.952-0.416-2.944-0.608l-0.208-0.032-0.144-0.032-0.544-0.112-0.4-0.080-0.048-0.016-0.176-0.032-0.96-0.192-1.12-0.208-0.048-0.016-0.432-0.080-0.544-0.096-0.112-0.016-0.192-0.048c-1.024-0.192-2.032-0.368-3.056-0.544l-0.176-0.032-0.112-0.032-0.576-0.096-0.416-0.080h-0.032l-0.112-0.016-1.040-0.192-1.024-0.16-0.112-0.032h-0.016l-0.448-0.064-0.576-0.096-0.096-0.032-0.16-0.016c-1.040-0.176-2.080-0.336-3.136-0.512l-0.144-0.016-0.688-0.112-0.448-0.064h-0.016l-0.048-0.016-1.104-0.16-1.088-0.16-0.048-0.016h-0.016l-0.448-0.064-0.608-0.080-0.080-0.016-0.144-0.016c-1.056-0.16-2.128-0.304-3.2-0.448l-0.128-0.016-0.080-0.016-0.608-0.080-0.464-0.064 1.072 0.144 0.208 0.032c1.072 0.144 2.144 0.288 3.2 0.448l0.224 0.032 1.056 0.144 0.064 0.016 1.088 0.16 1.104 0.16 0.064 0.016 1.040 0.16 0.24 0.032c1.056 0.176 2.096 0.336 3.136 0.512l0.256 0.048 1.024 0.16 0.128 0.032 1.040 0.176 1.024 0.176 0.144 0.016 0.992 0.176 0.288 0.064c1.024 0.176 2.032 0.352 3.056 0.544l0.304 0.064 0.976 0.176 0.224 0.048 0.944 0.192 0.96 0.176 0.224 0.048 0.944 0.192 0.352 0.064c0.992 0.192 1.968 0.4 2.944 0.608l1.296 0.272 0.336 0.064 0.864 0.192 0.832 0.176 0.352 0.080 0.88 0.192 0.432 0.096c0.944 0.208 1.872 0.432 2.816 0.64l1.792 0.416 0.736 0.176 0.704 0.176 0.512 0.112 0.784 0.192 0.56 0.144 0.768 0.192 0.848 0.208 0.272 0.064 0.752 0.192 0.592 0.144 0.736 0.192 0.656 0.176 0.608 0.144 0.512 0.144 0.72 0.192 1.376 0.352 0.656 0.192 1.184 0.32 0.608 0.16 1.36 0.384 0.88 0.24 0.416 0.112 0.304 0.096 0.976 0.272 0.56 0.16 0.848 0.256 0.512 0.144 1.248 0.368 0.448 0.128 0.928 0.288 0.496 0.144 1.12 0.336 0.224 0.064 0.016 0.016 2.752 0.848 0.336 0.112 1.344 0.416 0.256 0.096 1.152 0.352 0.336 0.112c18.544 6.032 36.48 13.424 53.68 22.080l0.832 0.416 0.304 0.144 0.832 0.432 0.32 0.16c0.88 0.448 1.744 0.896 2.608 1.344l0.4 0.208 0.768 0.416 0.4 0.208 0.72 0.368 0.672 0.368 0.4 0.208 0.704 0.384 0.496 0.256 0.688 0.384 0.528 0.272 0.576 0.32 1.12 0.608 0.656 0.368 0.56 0.304 1.392 0.784 0.304 0.16 0.544 0.304 0.64 0.368 0.592 0.336 0.64 0.368 0.544 0.304 1.088 0.624 0.496 0.288 0.704 0.416 1.28 0.736 0.448 0.272 1.104 0.64 0.448 0.272 0.768 0.464 0.464 0.272 1.184 0.72 0.032 0.016 1.104 0.672 0.416 0.256 0.816 0.496 0.4 0.256 1.152 0.704 0.176 0.112 1.408 0.88 0.864 0.544 0.336 0.208 1.168 0.752 0.208 0.128 0.976 0.624 0.352 0.24 0.944 0.608 0.256 0.16 1.168 0.768 0.24 0.16 1.28 0.832 1.040 0.704 0.144 0.080 1.184 0.8 0.256 0.176 0.944 0.64 0.288 0.192 1.168 0.8 1.184 0.816 0.272 0.176 0.944 0.672 0.256 0.176 1.184 0.832h0.016l1.136 0.816 1.248 0.88 0.208 0.144 1.168 0.848 0.144 0.096 1.008 0.736 1.28 0.928 0.16 0.128 1.152 0.848 0.224 0.16 0.928 0.688 0.288 0.224 1.040 0.768 0.096 0.080 1.136 0.848 0.272 0.224 0.864 0.656 0.32 0.24 1.104 0.848zM339.824 791.264l-133.296 75.344-113.136-113.136 75.344-133.296c-8.272-16.432-15.392-33.536-21.264-51.216l-147.472-40.96v-160l147.472-40.96c5.872-17.68 12.992-34.784 21.264-51.216l-75.344-133.296 113.136-113.136 133.296 75.344-0.144 0.064-2.16 1.104c-0.864 0.432-1.712 0.88-2.576 1.328l-0.848 0.432-1.392 0.736-1.376 0.736-1.392 0.752-1.376 0.736-1.376 0.752-1.36 0.768-1.376 0.752-0.912 0.528-0.448 0.24-0.56 0.32-0.8 0.464-1.232 0.704-2.832 1.648-1.2 0.72-0.896 0.528-0.976 0.592-0.944 0.56-1.024 0.624-0.992 0.608-0.656 0.4-1.296 0.8-1.952 1.216-0.72 0.464-1.264 0.8-0.928 0.592-0.96 0.624-0.8 0.512-1.216 0.8-0.864 0.576-0.96 0.624-0.864 0.576-1.184 0.8-0.816 0.544-0.944 0.64-0.864 0.592-1.216 0.848-0.752 0.512-0.656 0.464-1.264 0.88-0.912 0.64-0.928 0.656-0.72 0.512-3.008 2.176-0.784 0.576-1.168 0.864-0.816 0.592-1.76 1.328-1.136 0.864-0.752 0.576-0.72 0.544c-0.368 0.288-0.736 0.56-1.104 0.848l-54.144-40.944-56.576 56.576 40.944 54.144c-0.288 0.368-0.576 0.736-0.848 1.104l-0.544 0.72-0.576 0.736c-0.288 0.384-0.56 0.752-0.848 1.136l-0.656 0.864-0.688 0.912-0.528 0.736-0.912 1.216-0.592 0.816-0.672 0.928-0.592 0.816-0.864 1.2-0.56 0.784-0.464 0.656c-0.56 0.784-1.104 1.568-1.664 2.368l-0.512 0.736-0.496 0.704c-0.544 0.8-1.088 1.584-1.616 2.384l-0.48 0.688-0.528 0.784c-0.256 0.4-0.528 0.8-0.8 1.2l-0.592 0.88-0.624 0.96-0.512 0.784-0.832 1.248-0.544 0.848-0.624 0.96-0.56 0.864-0.768 1.232-0.528 0.816-0.608 0.976-0.592 0.944-0.736 1.2-0.48 0.784-0.416 0.672-0.8 1.312-0.576 0.976-0.592 0.976-1.2 2.016-0.56 0.96-0.576 0.992-0.48 0.832-0.704 1.232-0.544 0.928-0.32 0.56-0.24 0.448-0.528 0.912-0.752 1.376-0.416 0.736-0.352 0.624-0.752 1.376-0.736 1.376-0.752 1.392-0.736 1.376-0.736 1.392-0.432 0.848c-0.448 0.848-0.896 1.712-1.328 2.576l-0.384 0.752-0.784 1.552 0.4-0.816 0.176-0.32 0.4-0.816 0.192-0.352c0.432-0.864 0.88-1.728 1.328-2.576l0.224-0.432 0.384-0.752 0.24-0.448 0.352-0.672 0.32-0.592 0.256-0.48 0.368-0.688 0.288-0.528 0.352-0.672 0.32-0.592 0.288-0.512 0.272-0.512 0.352-0.624 0.336-0.608 0.336-0.624 0.32-0.576 0.528-0.928 0.080-0.16 0.288-0.496 0.384-0.704 0.32-0.544 0.4-0.704 0.288-0.496 0.624-1.104 0.272-0.464 0.432-0.752 0.288-0.496 0.48-0.816 0.224-0.384 0.672-1.136 0.24-0.4 0.496-0.816 0.256-0.432 0.592-0.976 0.112-0.208 0.72-1.168 0.224-0.384 0.528-0.864 0.224-0.352 0.736-1.184 0.064-0.096 0.672-1.104 0.224-0.336 0.576-0.928 0.192-0.288 0.752-1.2 0.112-0.16 0.656-1.024 0.208-0.32 0.64-0.992 0.128-0.208 0.784-1.2 1.728-2.592 0.048-0.080 0.8-1.2 0.16-0.224 0.672-0.992 0.176-0.256 0.8-1.184 0.816-1.2 0.176-0.24 0.688-0.976 0.144-0.224 0.848-1.2 0.816-1.168 0.176-0.256 0.72-0.992 0.128-0.192 0.848-1.184 0.080-0.096 0.752-1.056 0.208-0.256 0.736-1.024 0.096-0.144 0.864-1.152 0.144-0.208 0.704-0.944 0.224-0.288 0.784-1.040 0.064-0.096 0.848-1.136 0.208-0.272 0.672-0.864 0.24-0.32 0.848-1.104 40.304 53.296c-24.896 36.192-42.528 77.728-50.832 122.528l-133.344 18.528v80l133.344 18.528c8.304 44.8 25.936 86.336 50.832 122.528l-40.304 53.296-0.848-1.104-0.256-0.32-0.64-0.848-0.224-0.304-0.848-1.104-0.112-0.16-0.72-0.96-0.256-0.336-0.64-0.88-0.208-0.272-0.816-1.12-0.176-0.24-0.672-0.896-0.24-0.352-0.672-0.912-0.16-0.224-0.816-1.12-0.208-0.304-0.608-0.864-0.256-0.352-0.704-1.008-0.096-0.128-0.8-1.136-0.224-0.336-0.608-0.848-0.224-0.352-0.784-1.136-0.064-0.080-0.736-1.072-0.24-0.368-0.576-0.848-0.224-0.336-0.768-1.136-0.144-0.224-0.624-0.944-0.832-1.248-0.208-0.32-0.736-1.136-0.208-0.32-0.56-0.864-0.272-0.4-0.576-0.896-0.176-0.288-0.72-1.136-0.24-0.384-0.512-0.816-0.272-0.416-0.592-0.96-0.144-0.224-0.016-0.032-0.688-1.104-0.256-0.432-0.48-0.784-0.272-0.432-0.656-1.088-0.032-0.048-0.176-0.304-0.544-0.88-0.272-0.48-0.448-0.752-0.288-0.448-0.656-1.12-0.24-0.432-0.448-0.752-0.304-0.528-0.416-0.72-0.288-0.48-0.624-1.088-0.304-0.528-0.384-0.672-0.32-0.576-0.384-0.672-0.288-0.512-0.112-0.208-0.496-0.864-0.32-0.608-0.336-0.592-0.336-0.624-0.352-0.624-0.272-0.512-0.288-0.512-0.32-0.592-0.352-0.672-0.288-0.528-0.368-0.688-0.256-0.48-0.32-0.592-0.352-0.672-0.24-0.464-0.384-0.72-0.224-0.448c-0.448-0.848-0.896-1.712-1.328-2.56l-0.192-0.368-0.4-0.816-0.176-0.32-0.4-0.816 0.064 0.144 0.448 0.896 0.064 0.096 0.208 0.416 0.192 0.4 0.064 0.112 0.128 0.256c0.432 0.848 0.88 1.712 1.328 2.56l0.224 0.448 0.208 0.4 0.176 0.32 0.064 0.112 0.176 0.352 0.32 0.608 0.352 0.656 0.224 0.432 0.032 0.048 0.128 0.24 0.24 0.448 0.144 0.272 0.144 0.256 0.224 0.416 0.176 0.352 0.272 0.496 0.288 0.528 0.544 0.992 0.080 0.128 0.128 0.256 0.208 0.368 0.144 0.256 0.192 0.336 0.224 0.4 0.096 0.208 0.048 0.064 0.448 0.8 0.16 0.304 0.24 0.416 0.288 0.496 0.096 0.176 0.144 0.272 0.176 0.304 0.144 0.256 0.24 0.416 0.224 0.384 0.080 0.144c0.208 0.368 0.416 0.72 0.624 1.088l0.080 0.128 0.208 0.352 0.272 0.48 0.144 0.24 0.16 0.272 0.144 0.256 0.128 0.224 0.32 0.528 0.192 0.352 0.048 0.080c0.224 0.384 0.448 0.752 0.656 1.12l0.096 0.144 0.192 0.304 0.256 0.448 0.192 0.304 0.16 0.288 0.112 0.192 0.128 0.192 0.416 0.688 0.144 0.256 0.064 0.096 0.56 0.928 0.192 0.32 0.176 0.272 0.24 0.4 0.24 0.384 0.16 0.272 0.192 0.32 0.592 0.944 0.032 0.064 0.128 0.192 0.592 0.96 0.112 0.176 0.16 0.24 0.208 0.352 0.304 0.464 0.24 0.384c0.24 0.384 0.48 0.752 0.72 1.136l0.032 0.064 0.144 0.224 0.416 0.64 0.16 0.256 0.128 0.192 0.144 0.208 0.192 0.304 0.368 0.56 0.144 0.24 0.064 0.080c0.24 0.384 0.496 0.752 0.736 1.136l0.064 0.080 0.144 0.24 0.368 0.544 0.208 0.32 0.128 0.208 0.128 0.176 0.16 0.256 0.464 0.688 0.112 0.176 0.032 0.048c0.256 0.384 0.512 0.752 0.768 1.136l0.064 0.112 0.16 0.224 0.32 0.48 0.256 0.368 0.144 0.224 0.096 0.144 0.144 0.208 0.592 0.864 0.048 0.064 0.016 0.016c0.256 0.384 0.512 0.768 0.784 1.136l0.080 0.128 0.144 0.224 0.288 0.4 0.32 0.448 0.144 0.208 0.080 0.128c0.256 0.368 0.528 0.752 0.8 1.136l0.016 0.016 0.080 0.112 0.544 0.784 0.16 0.224 0.112 0.16 0.144 0.192 0.24 0.352 0.368 0.512 0.144 0.208 0.064 0.096c0.272 0.368 0.544 0.752 0.816 1.12l0.032 0.048 0.592 0.816 0.208 0.272 0.112 0.176 0.128 0.176 0.224 0.304 0.448 0.592 0.128 0.192 0.048 0.048c0.272 0.384 0.544 0.752 0.816 1.12l0.064 0.080 0.144 0.192 0.384 0.544 0.256 0.336 0.144 0.176 0.112 0.16 0.176 0.24 0.544 0.72 0.096 0.128 0.016 0.032c0.288 0.368 0.56 0.736 0.848 1.104l0.080 0.112 0.144 0.192 0.352 0.448 0.288 0.4 0.16 0.192 0.096 0.128c0.288 0.368 0.56 0.736 0.848 1.104l-40.944 54.144 56.576 56.576 54.144-40.944c0.368 0.288 0.736 0.576 1.104 0.848l0.32 0.24 0.864 0.656 0.176 0.144 0.096 0.080c0.384 0.288 0.752 0.56 1.136 0.848l0.016 0.016 0.080 0.064 0.768 0.576 0.272 0.192 0.128 0.096 0.16 0.128 0.352 0.272 0.576 0.416 0.16 0.112 0.064 0.048c0.384 0.288 0.768 0.576 1.152 0.848l0.032 0.032 0.128 0.096 0.656 0.48 0.336 0.24 0.144 0.112 0.144 0.096 0.304 0.224 0.704 0.512 0.112 0.080 0.032 0.016c0.384 0.288 0.784 0.56 1.168 0.848l0.064 0.048 0.144 0.096 0.576 0.416 0.4 0.272 0.144 0.112 0.128 0.080 0.256 0.192 0.88 0.624h0.016c0.4 0.288 0.784 0.56 1.184 0.832l0.096 0.064 0.16 0.112 0.496 0.352 0.448 0.32 0.176 0.112 0.096 0.064c0.784 0.544 1.568 1.072 2.352 1.616l0.112 0.080 0.176 0.112 0.416 0.288 0.528 0.352 0.176 0.128 0.080 0.048c0.4 0.272 0.8 0.528 1.184 0.8l0.032 0.016 0.112 0.064 0.752 0.512 0.432 0.288 0.528 0.336 0.608 0.4 0.176 0.112 0.064 0.048c0.384 0.256 0.784 0.512 1.168 0.768l0.064 0.048 0.192 0.112 0.608 0.4 0.336 0.208 0.176 0.128 0.176 0.112 0.272 0.176 0.704 0.448 0.16 0.112 0.048 0.016c0.4 0.256 0.784 0.496 1.168 0.752l0.112 0.064 0.72 0.464 0.368 0.224 0.224 0.144 0.16 0.096 0.224 0.144 0.8 0.496 0.144 0.096 0.032 0.016c0.384 0.24 0.768 0.464 1.152 0.704l0.144 0.096 0.256 0.16 0.4 0.24 0.416 0.256 0.256 0.16 0.32 0.192 0.944 0.576 0.32 0.192 0.704 0.416 0.192 0.128 0.192 0.112 0.272 0.16 0.32 0.192 0.448 0.272 0.304 0.176 0.144 0.096c0.368 0.208 0.736 0.432 1.104 0.64l0.096 0.064 0.352 0.208 0.528 0.304 0.224 0.128 0.256 0.144 0.272 0.16 0.24 0.144 0.464 0.272 0.368 0.208 0.128 0.080c0.368 0.208 0.72 0.416 1.088 0.624l0.144 0.080 0.4 0.224 0.4 0.24 0.24 0.128 0.32 0.192 0.272 0.144 0.176 0.096 0.464 0.272 0.448 0.256 0.4 0.208 0.704 0.4 0.064 0.032 0.208 0.112 0.416 0.24 0.32 0.176 0.24 0.128 0.384 0.224 0.272 0.144 0.112 0.064 0.448 0.24 0.544 0.304 0.592 0.32 0.432 0.24 0.096 0.032 0.256 0.144 0.432 0.24 0.24 0.128 0.256 0.128 0.464 0.256 0.24 0.128 0.048 0.032 0.352 0.176 0.736 0.4 0.656 0.336 0.304 0.16 0.096 0.048 0.336 0.192 0.432 0.224 0.16 0.080 0.24 0.128c0.864 0.448 1.728 0.896 2.608 1.344l0.736 0.368 0.416 0.224 0.096 0.048 0.208 0.096 0.688 0.352 0.144 0.064zM512 576c-70.64 0-128-57.36-128-128s57.36-128 128-128c70.64 0 128 57.36 128 128s-57.36 128-128 128zM131.2 398.224v0l0.112-0.88 0.208-1.456 0.080-0.624 0.176-1.264 0.080-0.624 0.128-0.784 0.096-0.656 0.128-0.896 0.128-0.864 0.128-0.896 0.112-0.656 0.112-0.784 0.112-0.624 0.192-1.248 0.112-0.624 0.128-0.784 0.096-0.656 0.16-0.88 0.080-0.448 0.064-0.4 0.16-0.912 0.112-0.64 0.144-0.784 0.112-0.624 0.224-1.232 0.112-0.624 0.144-0.768 0.128-0.656 0.16-0.864 0.096-0.448 0.24-1.296 0.144-0.672 0.144-0.736 0.128-0.656 0.256-1.2 0.128-0.656 0.16-0.72 0.144-0.688 0.16-0.768 0.112-0.528 0.096-0.48 0.176-0.784 0.16-0.688 0.144-0.688 0.16-0.688 0.256-1.168 0.176-0.72 0.144-0.624 0.176-0.736 0.144-0.64 0.288-1.248 0.144-0.592 0.192-0.784 0.144-0.544 0.192-0.8 0.048-0.208 0.224-0.896 0.208-0.816 0.128-0.48 0.208-0.832 0.112-0.416 0.192-0.8 0.224-0.848 0.080-0.304 0.24-0.896 0.096-0.368c0.272-0.976 0.528-1.952 0.8-2.928l0.080-0.272 0.272-0.976 0.032-0.096c0.288-1.056 0.592-2.112 0.896-3.168l0.032-0.112c1.36-4.736 2.832-9.424 4.368-14.064v0c-1.536 4.64-3.008 9.328-4.368 14.064l-0.032 0.112c-0.304 1.056-0.608 2.112-0.896 3.168l-0.16 0.544-0.224 0.8c-0.272 0.976-0.528 1.952-0.8 2.928l-0.24 0.896-1.2 4.656-0.384 1.552-0.384 1.568-0.368 1.552-0.368 1.568-0.16 0.656-0.208 0.912-0.352 1.568-0.192 0.88-0.16 0.688-0.336 1.568-0.336 1.584-0.144 0.656-0.192 0.928-0.32 1.568-0.192 0.896-0.128 0.688-0.096 0.448-0.224 1.136-0.304 1.6-0.112 0.656-0.176 0.928-0.288 1.584-0.16 0.912-0.128 0.688-0.080 0.448-0.208 1.152-0.192 1.136-0.064 0.464-0.128 0.672-0.144 0.928-0.256 1.6-0.144 0.912-0.112 0.688-0.064 0.464-0.176 1.152-0.176 1.136-0.064 0.464-0.096 0.688-0.144 0.928-0.224 1.616-0.112 0.928-0.096 0.688-0.16 1.168zM512 512c35.328 0 64-28.672 64-64s-28.672-64-64-64c-35.328 0-64 28.672-64 64s28.672 64 64 64zM876.528 568.96c1.536-4.64 3.008-9.328 4.368-14.064l0.016-0.064 0.016-0.048c0.304-1.056 0.608-2.112 0.896-3.168l0.032-0.080v-0.016l0.128-0.448 0.144-0.528 0.032-0.096 0.048-0.176c0.272-0.976 0.528-1.952 0.8-2.928l0.048-0.208 0.048-0.16 0.144-0.528 0.096-0.368 0.016-0.048 0.064-0.256 0.224-0.88 0.192-0.768 0.096-0.32 0.016-0.096 0.096-0.368 0.112-0.464 0.048-0.176 0.24-0.912 0.272-1.104 0.048-0.208 0.064-0.24 0.128-0.56 0.080-0.32 0.064-0.224 0.112-0.464 0.080-0.32 0.016-0.096 0.128-0.496 0.144-0.64 0.144-0.608 0.112-0.496 0.032-0.144 0.080-0.32 0.096-0.416 0.064-0.24 0.080-0.384 0.128-0.528 0.048-0.192c0.080-0.384 0.176-0.784 0.256-1.168l0.048-0.208 0.112-0.48 0.080-0.4 0.064-0.288 0.096-0.4 0.096-0.432 0.144-0.64 0.096-0.496 0.112-0.512 0.128-0.608 0.032-0.16 0.064-0.304 0.080-0.384 0.064-0.272 0.096-0.448 0.096-0.48 0.032-0.176c0.096-0.4 0.176-0.8 0.256-1.2l0.032-0.192 0.096-0.464 0.096-0.432 0.048-0.304 0.080-0.384 0.064-0.288 0.032-0.16 0.128-0.704 0.096-0.432 0.080-0.448 0.128-0.672 0.032-0.192 0.064-0.288 0.064-0.368 0.048-0.288 0.096-0.48 0.080-0.448 0.032-0.176c0.080-0.4 0.16-0.816 0.224-1.232l0.032-0.176 0.080-0.448 0.080-0.464 0.064-0.32 0.064-0.368 0.048-0.272 0.032-0.176 0.128-0.736 0.080-0.416 0.064-0.432 0.16-0.88 0.032-0.288 0.064-0.368 0.064-0.304 0.064-0.48 0.080-0.448 0.032-0.176c0.064-0.416 0.128-0.832 0.192-1.248l0.032-0.176 0.080-0.448 0.064-0.464 0.048-0.32 0.064-0.368 0.048-0.288 0.016-0.176 0.112-0.72 0.128-0.864 0.112-0.704 0.016-0.192 0.048-0.272 0.048-0.384 0.048-0.304 0.080-0.48 0.064-0.448 0.016-0.176c0.064-0.416 0.112-0.832 0.176-1.264l0.032-0.176 0.048-0.448 0.064-0.48 0.048-0.304 0.048-0.384 0.048-0.288 0.016-0.176 0.096-0.704 0.048-0.448-0.16 1.328-0.208 1.456-0.080 0.624-0.176 1.264-0.080 0.624-0.128 0.784-0.096 0.656-0.384 2.656-0.112 0.656-0.112 0.784-0.112 0.624-0.192 1.248-0.112 0.624-0.128 0.784-0.096 0.656-0.24 1.328-0.224 1.312-0.112 0.64-0.144 0.784-0.112 0.624-0.224 1.232-0.112 0.624-0.144 0.768-0.384 1.968-0.24 1.296-0.144 0.672-0.144 0.736-0.128 0.656-0.256 1.2-0.128 0.656-0.16 0.72-0.144 0.688-0.272 1.296-0.272 1.264-0.16 0.688-0.144 0.688-0.16 0.688-0.256 1.168-0.176 0.72-0.144 0.624-0.176 0.736-0.288 1.264-0.288 1.216-0.192 0.784-0.144 0.544-0.192 0.8-0.272 1.104-0.336 1.296-0.512 2.048-0.304 1.152-0.24 0.896-0.096 0.368c-0.272 0.976-0.528 1.952-0.8 2.928l-0.080 0.272-0.304 1.072c-0.288 1.056-0.592 2.112-0.896 3.168l-0.032 0.112c-1.36 4.736-2.832 9.424-4.368 14.064v0zM147.472 568.96v0c-1.552-4.656-3.008-9.376-4.384-14.112v-0.016c-0.416-1.44-0.832-2.88-1.232-4.336l-0.048-0.16c-0.272-1.008-0.544-2.016-0.816-3.040l-0.080-0.288-0.256-0.944-0.048-0.192-0.256-0.944-0.224-0.864-0.080-0.32-0.224-0.88-0.096-0.432c-0.24-0.928-0.48-1.84-0.704-2.768l-0.128-0.512-0.192-0.8-0.128-0.56-0.32-1.312-0.128-0.592-0.176-0.752-0.144-0.624-0.176-0.72-0.256-1.168-0.16-0.688-0.144-0.688-0.16-0.688-0.176-0.816-0.096-0.448-0.112-0.496-0.176-0.816-0.128-0.656-0.16-0.768-0.128-0.608-0.256-1.232-0.128-0.592-0.16-0.816-0.112-0.608-0.192-0.976-0.064-0.352-0.080-0.368-0.176-0.96-0.128-0.608-0.16-0.848-0.096-0.544-0.24-1.28-0.096-0.56-0.144-0.864-0.112-0.576-0.224-1.344-0.064-0.336-0.176-1.024-0.096-0.576-0.144-0.88-0.096-0.544-0.208-1.296-0.080-0.544-0.144-0.88-0.080-0.592-0.16-1.024-0.048-0.336-0.048-0.352-0.16-0.992-0.080-0.608-0.128-0.848-0.080-0.592-0.176-1.264-0.080-0.608-0.112-0.816-0.096-0.656-0.112-0.88 0.096 0.704 0.016 0.176 0.048 0.288 0.048 0.368 0.048 0.32 0.064 0.496 0.048 0.432 0.032 0.176c0.064 0.416 0.112 0.848 0.176 1.264l0.016 0.176 0.064 0.416 0.080 0.512 0.048 0.336 0.048 0.352 0.032 0.256 0.032 0.208 0.128 0.784 0.048 0.352 0.048 0.336 0.128 0.816 0.032 0.208 0.032 0.256 0.048 0.336 0.064 0.352 0.080 0.528 0.064 0.384 0.016 0.16c0.080 0.432 0.144 0.864 0.208 1.296l0.032 0.144 0.064 0.4 0.080 0.528 0.064 0.352 0.064 0.32 0.032 0.256 0.032 0.208 0.144 0.816 0.048 0.32 0.064 0.304 0.144 0.848 0.032 0.208 0.048 0.24 0.064 0.336 0.064 0.352 0.080 0.512 0.080 0.4 0.016 0.16c0.080 0.416 0.16 0.848 0.24 1.28l0.032 0.144 0.064 0.4 0.112 0.528 0.048 0.32 0.064 0.336 0.064 0.272 0.032 0.208 0.144 0.752 0.064 0.368 0.080 0.352 0.144 0.784 0.048 0.192 0.048 0.256 0.064 0.352 0.064 0.336 0.096 0.48 0.096 0.416 0.032 0.176c0.080 0.4 0.16 0.816 0.256 1.232l0.032 0.16 0.096 0.448 0.096 0.48 0.064 0.288 0.080 0.368 0.048 0.288 0.048 0.176 0.128 0.64 0.112 0.48 0.096 0.464 0.144 0.672 0.096 0.432 0.096 0.4 0.064 0.288 0.080 0.4 0.112 0.48 0.048 0.208c0.080 0.384 0.176 0.784 0.256 1.168l0.048 0.192 0.128 0.528 0.080 0.384 0.064 0.24 0.096 0.416 0.080 0.336 0.032 0.128 0.096 0.464 0.16 0.64 0.16 0.672 0.112 0.464 0.016 0.096 0.080 0.32 0.112 0.48 0.064 0.208 0.064 0.304c0.224 0.928 0.464 1.856 0.704 2.768l0.064 0.272 0.032 0.16 0.128 0.48 0.096 0.4 0.080 0.32 0.224 0.832 0.256 0.976 0.032 0.16 0.016 0.032 0.096 0.384 0.16 0.56 0.032 0.128 0.048 0.16c0.272 1.024 0.544 2.032 0.816 3.040l0.032 0.112 0.016 0.048c0.4 1.456 0.816 2.896 1.232 4.336v0.016c1.376 4.736 2.832 9.456 4.384 14.112zM462.672 828.848l-1.152-0.144-1.072-0.144-0.208-0.032c-1.072-0.144-2.144-0.288-3.2-0.448l-0.224-0.032-1.056-0.144-0.064-0.016-1.088-0.16-1.104-0.16-0.064-0.016-1.040-0.16-0.24-0.032c-1.056-0.176-2.096-0.336-3.136-0.512l-0.256-0.048-1.024-0.16-0.128-0.032-1.040-0.176-1.024-0.176-0.144-0.016-0.992-0.176-0.288-0.064c-1.024-0.176-2.032-0.352-3.056-0.544l-0.304-0.064-0.976-0.176-0.224-0.048-0.944-0.192-0.96-0.176-0.224-0.048-0.944-0.192-0.352-0.064c-0.992-0.192-1.968-0.4-2.944-0.608l-1.296-0.272-0.336-0.064-0.864-0.192-0.832-0.176-0.352-0.080-0.88-0.192-0.432-0.096c-0.944-0.208-1.872-0.432-2.816-0.64l-1.792-0.416-0.736-0.176-0.704-0.176-0.512-0.112-0.784-0.192-0.56-0.144-0.768-0.192-0.848-0.208-0.272-0.064-0.752-0.192-0.592-0.144-0.736-0.192-0.656-0.176-0.608-0.144-0.512-0.144-0.72-0.192-1.376-0.352-0.656-0.192-1.184-0.32-0.608-0.16-1.36-0.384-0.88-0.24-0.416-0.112-0.304-0.096-0.976-0.272-0.56-0.16-0.848-0.256-0.512-0.144-1.248-0.368-0.448-0.128-0.928-0.288-0.496-0.144-1.12-0.336-0.224-0.064-0.016-0.016-2.752-0.848-0.336-0.112-1.344-0.416-0.256-0.096-1.152-0.352-0.336-0.112c-18.544-6.032-36.48-13.424-53.68-22.080l-0.832-0.416-0.304-0.144-0.832-0.432-0.32-0.16c-0.88-0.448-1.744-0.896-2.608-1.344l-0.4-0.208-0.768-0.416-0.4-0.208-0.72-0.368-0.672-0.368-0.4-0.208-0.704-0.384-0.496-0.256-0.688-0.384-0.528-0.272-0.576-0.32-1.12-0.608-0.656-0.368-0.56-0.304-1.392-0.784-0.304-0.16-0.544-0.304-0.64-0.368-0.592-0.336-0.64-0.368-0.544-0.304-1.088-0.624-0.496-0.288-0.704-0.416-1.28-0.736-0.448-0.272-1.104-0.64-0.448-0.272-0.768-0.464-0.464-0.272-1.184-0.72-0.032-0.016-1.104-0.672-0.416-0.256-0.816-0.496-0.4-0.256-1.152-0.704-0.176-0.112-1.408-0.88-0.864-0.544-0.336-0.208-1.168-0.752-0.208-0.128-0.976-0.624-0.352-0.24-0.944-0.608-0.256-0.16-1.168-0.768-0.24-0.16-1.28-0.832-1.040-0.704-0.144-0.080-1.184-0.8-0.256-0.176-0.944-0.64-0.288-0.192-1.168-0.8-1.184-0.816-0.272-0.176-0.944-0.672-0.256-0.176-1.184-0.832h-0.016l-1.136-0.816-1.248-0.88-0.208-0.144-1.168-0.848-0.144-0.096-1.008-0.736-1.28-0.928-0.16-0.128-1.152-0.848-0.224-0.16-0.928-0.688-0.288-0.224-1.040-0.768-0.096-0.080-1.136-0.848-0.272-0.224-0.864-0.656-0.32-0.24-1.104-0.848 53.296-40.304c36.192 24.896 77.728 42.528 122.528 50.832l9.2 66.192zM393.504 813.344l0.16 0.048 0.176 0.064 0.432 0.128 0.72 0.224 0.176 0.064 0.080 0.032c0.448 0.144 0.896 0.272 1.344 0.416l0.336 0.112 0.592 0.192 0.448 0.128 0.24 0.080 0.176 0.048 0.224 0.080 1.072 0.32 0.24 0.080 0.88 0.256 0.24 0.080 0.224 0.064 0.272 0.080 0.352 0.112 0.576 0.176 0.32 0.096 0.128 0.032c0.416 0.128 0.832 0.24 1.248 0.368l0.16 0.048 0.352 0.096 0.496 0.144 0.352 0.112 0.56 0.16 0.176 0.048 0.8 0.224 0.336 0.096 0.384 0.112 0.688 0.192 0.192 0.048 0.272 0.080 0.352 0.096 0.272 0.080 0.464 0.128 0.448 0.128 0.16 0.032c0.4 0.112 0.8 0.224 1.184 0.32l0.208 0.064 0.448 0.128 0.4 0.096 0.688 0.192 0.288 0.064 0.128 0.048 0.592 0.144 0.544 0.144 0.576 0.144 0.512 0.144 0.144 0.032 0.32 0.080 0.416 0.112 0.224 0.048 0.368 0.096 0.544 0.144 0.48 0.112 0.832 0.208h0.016l0.224 0.064 0.544 0.128 0.336 0.080 0.224 0.064 0.464 0.112 0.32 0.080 0.096 0.016 0.416 0.096 1.44 0.352 0.384 0.080 0.096 0.032 0.368 0.080 0.464 0.112 0.192 0.048 0.288 0.064c0.944 0.208 1.872 0.432 2.816 0.64l0.256 0.048 0.176 0.048 0.88 0.192 0.064 0.016 0.288 0.064 0.848 0.176 0.848 0.192 0.272 0.048 0.064 0.016 0.4 0.080 0.656 0.144 0.24 0.048c0.976 0.208 1.952 0.416 2.944 0.608l0.208 0.032 0.144 0.032 0.544 0.112 0.4 0.080 0.048 0.016 0.176 0.032 0.96 0.192 1.12 0.208 0.048 0.016 0.432 0.080 0.544 0.096 0.112 0.016 0.192 0.048c1.024 0.192 2.032 0.368 3.056 0.544l0.176 0.032 0.112 0.032 0.576 0.096 0.416 0.080h0.032l0.112 0.016 1.040 0.192 1.024 0.16 0.112 0.032h0.016l0.448 0.064 0.576 0.096 0.096 0.032 0.16 0.016c1.040 0.176 2.080 0.336 3.136 0.512l0.144 0.016 0.688 0.112 0.448 0.064h0.016l0.048 0.016 1.104 0.16 1.088 0.16 0.048 0.016h0.016l0.448 0.064 0.608 0.080 0.080 0.016 0.144 0.016c1.056 0.16 2.128 0.304 3.2 0.448l0.128 0.016 0.080 0.016 0.608 0.080 0.464 0.064 1.152 0.144 9.328 67.152h80l9.328-67.152 9.2-66.192c44.8-8.304 86.336-25.936 122.528-50.832l53.296 40.304-1.104 0.848-0.32 0.256-0.848 0.64-0.304 0.224-1.104 0.848-1.12 0.832-0.336 0.256-1.152 0.848-1.12 0.816-1.136 0.848-0.352 0.24-1.136 0.832-1.12 0.816-1.168 0.832-0.352 0.24-2.272 1.6-0.336 0.224-0.864 0.608-0.336 0.224-1.136 0.8-1.504 1.024-1.2 0.8-1.136 0.768-1.168 0.784-0.384 0.24-2.32 1.536-1.184 0.768-0.4 0.24-1.184 0.768-1.152 0.72-0.352 0.24-0.848 0.528-0.4 0.256-2.736 1.696-0.816 0.496-1.536 0.944-1.2 0.72-0.464 0.272-0.768 0.464-0.448 0.256-1.12 0.672-1.2 0.704-1.712 0.992-1.104 0.624-0.496 0.288-0.704 0.4-0.544 0.32-2.864 1.6-0.624 0.336-0.608 0.336-1.136 0.624-1.12 0.608-0.64 0.352-0.544 0.288-0.672 0.368-1.088 0.576-1.136 0.592-0.72 0.384-0.448 0.224c-0.864 0.448-1.712 0.896-2.576 1.328l-0.352 0.192-0.816 0.416-1.136 0.56c-17.2 8.656-35.152 16.064-53.728 22.080l-0.256 0.096-1.296 0.416-1.536 0.48-1.664 0.528-4.448 1.344-1.536 0.448-1.632 0.48-1.472 0.416-1.456 0.416-1.616 0.432-1.52 0.432-1.632 0.432-1.488 0.384-1.472 0.384-1.616 0.416-1.552 0.384-1.648 0.4-3.168 0.752-1.408 0.32-1.584 0.368-4.64 1.008-0.256 0.048-1.472 0.32-1.472 0.304-1.472 0.288-1.76 0.352-1.424 0.272-0.384 0.064-2.848 0.528-1.44 0.256-0.48 0.080-3.312 0.576-0.88 0.144-0.56 0.096-1.264 0.192-0.64 0.112-0.736 0.112-0.704 0.112-1.312 0.192-1.264 0.192-0.816 0.112-0.512 0.080c-0.992 0.144-1.968 0.272-2.96 0.416l-0.336 0.032-1.008 0.144-1.168 0.144 1.072-0.128 0.080-0.016h0.016l1.008-0.144 0.128-0.016 0.208-0.016c0.992-0.144 1.968-0.272 2.96-0.416l0.304-0.048 0.208-0.032 0.48-0.064 0.336-0.048 0.128-0.016 0.48-0.080 0.656-0.096 0.592-0.080 0.56-0.096 0.16-0.016 0.704-0.112 0.288-0.048 0.448-0.064 0.464-0.080 0.176-0.032c0.432-0.064 0.848-0.128 1.264-0.192l0.16-0.032 0.4-0.064 0.528-0.080 0.352-0.064 0.32-0.064 0.24-0.032 0.224-0.032 0.912-0.16 0.224-0.032 0.192-0.048 0.96-0.16 0.24-0.048 0.208-0.032 0.272-0.048 0.416-0.080 0.624-0.112 0.288-0.048 0.112-0.016c0.448-0.080 0.912-0.16 1.376-0.256l0.096-0.016 0.24-0.048 0.688-0.128 0.448-0.080 0.208-0.032 0.176-0.032c0.96-0.192 1.92-0.368 2.864-0.56l0.144-0.032 0.176-0.032 0.512-0.096 0.736-0.16 0.16-0.032h0.064c0.48-0.112 0.976-0.208 1.472-0.304l0.032-0.016 0.128-0.016 1.456-0.32 0.112-0.016c0.992-0.208 1.968-0.416 2.944-0.64l0.096-0.016 0.128-0.032 0.56-0.128 0.8-0.176 0.080-0.016h0.032c0.512-0.112 1.008-0.24 1.52-0.352h0.016l0.048-0.016 0.864-0.192 0.544-0.128 0.112-0.032 0.080-0.016c0.992-0.224 1.984-0.464 2.976-0.704l0.064-0.016 0.096-0.032 0.592-0.144 0.832-0.192 0.048-0.016h0.016c0.512-0.128 1.024-0.256 1.536-0.384h0.016l0.896-0.24 0.544-0.128 0.096-0.032 0.080-0.016c0.976-0.256 1.968-0.512 2.96-0.768l0.064-0.016 0.080-0.032 0.608-0.16 0.816-0.208 0.032-0.016h0.032c0.496-0.144 1.008-0.288 1.52-0.416v-0.016l0.912-0.24 0.528-0.144 0.096-0.032 0.080-0.016c0.976-0.272 1.952-0.56 2.928-0.832l0.064-0.016 0.112-0.032 0.576-0.176 0.784-0.224 0.064-0.016 0.032-0.016c0.496-0.144 0.992-0.288 1.488-0.432h0.016l0.032-0.016 0.864-0.256 0.512-0.16 0.112-0.032 0.096-0.032c0.96-0.288 1.92-0.576 2.864-0.864l0.096-0.032 0.128-0.032 0.56-0.176 0.72-0.24 0.112-0.032 0.048-0.016c0.48-0.144 0.96-0.304 1.44-0.448l0.032-0.016 0.064-0.016 0.832-0.272 0.464-0.144 0.144-0.048 0.112-0.048c0.848-0.272 1.68-0.544 2.512-0.816l-40.96 147.472h-160l-40.96-147.472c0.816 0.272 1.648 0.544 2.464 0.816z" />
<glyph unicode="&#xe927;" glyph-name="github" data-tags="github" d="M511.957 949.327c-282.724 0-511.952-229.644-511.952-512.943 0-226.621 146.69-418.856 350.144-486.713 25.616-4.692 34.952 11.147 34.952 24.75 0 12.154-0.44 44.43-0.691 87.222-142.415-30.984-172.463 68.77-172.463 68.77-23.291 59.229-56.859 75.005-56.859 75.005-46.487 31.835 3.52 31.205 3.52 31.205 51.39-3.653 78.421-52.869 78.421-52.869 45.67-78.374 119.847-55.734 149.016-42.635 4.652 33.157 17.853 55.766 32.5 68.581-113.687 12.942-233.22 56.962-233.22 253.512 0 55.986 19.959 101.77 52.71 137.635-5.28 12.973-22.851 65.118 4.998 135.746 0 0 42.998 13.792 140.812-52.585 40.829 11.367 84.644 17.067 128.177 17.256 43.469-0.189 87.285-5.888 128.177-17.256 97.751 66.377 140.655 52.585 140.655 52.585 27.942-70.628 10.372-122.773 5.092-135.746 32.814-35.865 52.647-81.649 52.647-137.635 0-197.053-119.722-240.413-233.786-253.102 18.387-15.839 34.763-47.138 34.763-95 0-68.55-0.629-123.875-0.629-140.689 0-13.729 9.209-29.693 35.203-24.687 203.297 67.983 349.861 260.093 349.861 486.65 0 283.299-229.26 512.943-512.047 512.943z" />
<glyph unicode="&#xe928;" glyph-name="gmi" data-tags="gmi" d="M319.723 369.133c0 0 11.877 143.051 194.51 134.568 0 0-146.648 72.374-318.904-52.583 0 0-99.516-59.367-121.566-191.113l-10.178-323.986 294.617 50.322c0 0 141.322 20.353 188.822 95.557 0 0-40.99 60.78-63.893 103.187-44.666-79.443-149.838-97.537-212.597-36.358-51.821 50.516-57.677 153.685 49.189 220.405zM809.946 370.259l91.603 61.069c0 0 50.885-63.328 54.276-119.875l4.524-254.438c0 0-182.503-19.227-239.741-19.227-79.728-0.006-150.966 67.29-177.544 102.346 0 0-29.963 34.038-43.54 94.195-13.565 60.162 10.743 137.625 33.929 174.946 0 0-45.798-166.801 117.63-189.419 25.421-55.972 102.321-92.729 165.905-44.272 81.539 62.136 35.316 164.21-7.043 194.675zM460.514 239.646c0-51.521-41.771-93.292-93.295-93.292s-93.294 41.771-93.294 93.292c0 51.527 41.771 93.299 93.294 93.299s93.295-41.771 93.295-93.299zM830.298 266.218c0-42.468-34.426-76.894-76.894-76.894-42.474 0-76.9 34.426-76.9 76.894s34.426 76.9 76.9 76.9c42.468 0 76.894-34.432 76.894-76.9zM594.518 812.424c0 0 44.666-57.109 68.701-110.26 59.084 60.503 148.429 45.235 185.325-14.965 24.495-39.957 20.771-116.777-53.865-173.745 0 0 0-88.631-150.972-117.466 0 0 213.175-73.787 292.897 134.853 0 0 11.869 34.491 15.829 88.773l3.391 216.558-150.597 16.968c0 0-65.964 9.606-112.325 1.126 0 0-42.97-3.394-98.385-41.842zM161.969 475.714c0 0 98.383 54.561 137.964 64.174-65.024 33.361-99.793 146.727-26.009 210.339 54.733 47.183 180.655 57.957 226.448-63.329 0 0 126.38-19.222 124.115-195.068 0 0 118.453 256.984-173.353 395.96-96.637 38.286-380.763 72.211-380.763 72.211s-6.785-206.945 3.277-322.581c9.444-52.295 38.282-120.996 88.321-161.705zM463.905 652.975c0-53.71-43.54-97.25-97.249-97.25-53.713 0-97.253 43.54-97.253 97.25 0 53.713 43.54 97.25 97.253 97.25 53.709 0 97.249-43.537 97.249-97.25zM830.298 633.328c0-40.83-33.094-73.929-73.927-73.929s-73.933 33.099-73.933 73.929c0 40.83 33.1 73.928 73.933 73.928s73.927-33.099 73.927-73.928z" />
<glyph unicode="&#xe929;" glyph-name="heart" data-tags="heart" d="M511.476 762.743c-10.665 10.165-21.979 19.281-33.842 27.298l35.34 34.866c118.734 114.213 306.451 113.264 422.437-1.349 116.461-115.063 116.986-301.556 0-418.791l-423.836-418.816-423.861 418.816 36.165 35.715c3.671-4.795 7.518-9.516 11.564-14.136 4.371-4.97 8.941-9.84 13.762-14.586l362.346-350.882 362.196 350.882c4.87 4.795 9.491 9.716 13.886 14.761 40.685 46.28 60.99 103.649 60.916 161.018 0.050 63.513-24.951 126.826-74.802 175.129-48.952 47.429-112.89 71.63-177.302 72.429h-0.749l-1.573 0.025h-3.347l-0.649-0.025-1.873-0.025h-0.325c-63.638-1.199-127.126-25.275-176.453-72.329zM74.402 587.239c0-51.625 16.484-103.224 49.477-146.757l-36.165-35.715c-116.961 115.562-116.961 303.229 0 418.791 116.461 115.063 305.202 115.587 423.861 0l-33.942-33.517c-42.908 29.072-92.635 44.057-142.486 45.031h-0.425l-0.974 0.025h-1.274l-0.599 0.025h-3.971c-64.862-0.475-129.374-24.676-178.7-72.454-49.452-47.903-74.427-110.567-74.802-173.556v-1.873z" />
<glyph unicode="&#xe92a;" glyph-name="heart-fill" data-tags="heart-fill" d="M114.014 430.742l-26.274-25.975c-116.986 115.562-116.986 303.229 0 418.791 116.436 115.063 305.177 115.587 423.836 0v0l1.399 1.349c118.734 114.213 306.476 113.264 422.462-1.349 116.436-115.063 116.961-301.556 0-418.791l-423.861-418.816-423.836 418.816 26.274 25.975z" />
<glyph unicode="&#xe92b;" glyph-name="hourglass" data-tags="hourglass" horiz-adv-x="640" d="M592.046 21.263v190.59c0 100.101-53.48 187.871-133.283 236.146 79.802 48.275 133.283 136.045 133.283 236.148v190.588c22.561 1.045 40.528 19.645 40.528 42.632 0 23.615-19.010 42.632-42.618 42.632h-547.338c-23.608 0-42.618-19.017-42.618-42.632 0-22.78 17.967-41.378 40.528-42.632v-190.588c0-100.102 53.48-187.873 133.283-236.148-79.802-48.275-133.283-136.045-133.283-236.146v-190.59c-22.561-1.045-40.528-19.645-40.528-42.632 0-23.615 19.010-42.631 42.618-42.631h547.338c23.608 0 42.618 19.016 42.618 42.631 0 22.988-17.967 41.587-40.528 42.632zM125.763 874.735h380.84v-190.588c0-105.117-85.445-190.59-190.525-190.59s-190.524 85.473-190.524 190.59v190.588h0.21zM125.763 21.263v190.59c0 105.116 85.443 190.588 190.524 190.588s190.524-85.473 190.524-190.588v-190.59h-381.047z" />
<glyph unicode="&#xe92c;" glyph-name="id" data-tags="id" horiz-adv-x="683" d="M682.668-64h-682.667v938.667h234.667v-85.333h-149.333v-768h512v768h-149.333v85.333h234.667v-938.667zM255.999 959.988h170.667v-255.995h-170.667v255.995zM341.341 618.66c-94.194 0-170.666-76.473-170.666-170.666s76.473-170.666 170.666-170.666c94.194 0 170.666 76.473 170.666 170.666s-76.473 170.666-170.666 170.666zM341.341 590.215c78.492 0 142.222-63.73 142.222-142.222s-63.73-142.222-142.222-142.222c-78.492 0-142.222 63.73-142.222 142.222s63.73 142.222 142.222 142.222zM341.334 618.667c-94.187 0-170.667-76.48-170.667-170.667s76.48-170.667 170.667-170.667c94.187 0 170.667 76.48 170.667 170.667s-76.48 170.667-170.667 170.667zM341.334 533.333c47.104 0 85.333-38.229 85.333-85.333s-38.229-85.333-85.333-85.333c-47.104 0-85.333 38.229-85.333 85.333s38.229 85.333 85.333 85.333zM477.861 176.394c0 17.653-14.336 31.995-32 31.995h-209.067c-17.664 0-32-14.342-32-31.995s14.336-31.995 32-31.995h209.067c17.664 0 32 14.342 32 31.995z" />
<glyph unicode="&#xe92d;" glyph-name="instagram" data-tags="instagram" d="M512 959.994c-139.051 0-156.487-0.59-211.097-3.081-54.497-2.487-91.714-11.142-124.284-23.799-33.667-13.084-62.221-30.59-90.685-59.054s-45.97-57.018-59.054-90.685c-12.657-32.569-21.312-69.786-23.799-124.284-2.492-54.61-3.081-72.045-3.081-211.097s0.589-156.487 3.081-211.097c2.487-54.494 11.142-91.714 23.799-124.285 13.084-33.67 30.59-62.22 59.054-90.68 28.464-28.47 57.018-45.97 90.685-59.060 32.569-12.66 69.786-21.31 124.284-23.8 54.61-2.49 72.046-3.080 211.097-3.080 139.052 0 156.487 0.59 211.097 3.080 54.494 2.49 91.714 11.14 124.285 23.8 33.67 13.090 62.22 30.59 90.68 59.060 28.47 28.46 45.97 57.010 59.060 90.68 12.66 32.57 21.31 69.79 23.8 124.285 2.49 54.61 3.080 72.045 3.080 211.097s-0.59 156.487-3.080 211.097c-2.49 54.497-11.14 91.714-23.8 124.284-13.090 33.667-30.59 62.221-59.060 90.685-28.46 28.464-57.010 45.97-90.68 59.054-32.57 12.657-69.79 21.312-124.285 23.799-54.61 2.491-72.045 3.081-211.097 3.081v0zM512 868.373c136.917 0 153.134-0.522 207.203-2.989 49.998-2.281 77.148-10.634 95.218-17.656 23.93-9.302 41.010-20.415 58.96-38.357 17.94-17.944 29.050-35.025 38.35-58.96 7.030-18.068 15.38-45.22 17.66-95.213 2.47-54.070 2.99-70.288 2.99-207.204s-0.52-153.134-2.99-207.203c-2.28-49.998-10.63-77.148-17.66-95.218-9.3-23.93-20.41-41.010-38.35-58.96-17.95-17.94-35.030-29.050-58.96-38.35-18.070-7.030-45.22-15.38-95.218-17.66-54.062-2.47-70.277-2.99-207.203-2.99s-153.141 0.52-207.203 2.99c-49.994 2.28-77.146 10.63-95.214 17.66-23.935 9.3-41.016 20.41-58.959 38.35-17.943 17.95-29.056 35.030-38.358 58.96-7.022 18.070-15.375 45.22-17.656 95.217-2.467 54.070-2.989 70.287-2.989 207.204s0.522 153.134 2.989 207.203c2.281 49.994 10.634 77.146 17.656 95.214 9.302 23.935 20.414 41.016 38.357 58.959s35.025 29.056 58.96 38.358c18.068 7.022 45.22 15.375 95.213 17.656 54.070 2.467 70.288 2.989 207.204 2.989zM512 710.744c-145.113 0-262.75-117.638-262.75-262.75s117.638-262.751 262.75-262.751c145.113 0 262.751 117.639 262.751 262.751s-117.639 262.75-262.751 262.75zM512 276.864c-94.512 0-171.13 76.617-171.13 171.13s76.617 171.13 171.13 171.13c94.512 0 171.13-76.617 171.13-171.13s-76.617-171.13-171.13-171.13zM846.151 720.837c0-33.862-27.45-61.312-61.31-61.312s-61.31 27.45-61.31 61.312 27.451 61.313 61.31 61.313c33.86 0 61.31-27.451 61.31-61.313z" />
<glyph unicode="&#xe92e;" glyph-name="instagram-tv" data-tags="instagram-tv" horiz-adv-x="896" d="M409.861 316.11v62.73c0 3.569-3.418 6.132-6.848 5.145l-173.542-49.995c-23.993-6.85-49.101 9.487-51.244 35.77-1.554 19.135 11.584 36.467 30.027 41.784l240.935 69.407c20.542 5.917 41.042-9.508 41.042-30.903v-62.708c0-3.569 3.407-6.153 6.836-5.156l166.932 48.098c23.921 6.925 49.098-9.476 51.24-35.792 1.565-19.112-11.568-36.435-30.002-41.741l-234.334-67.543c-20.553-5.929-41.042 9.507-41.042 30.903zM808.187 383.085c0-61.958-0.102-93.687-0.428-116.948-0.428-24.011-1.080-39.136-2.031-62.065v-0.322c-2.040-43.089-9.221-66.366-15.22-81.791-7.824-20.259-17.25-34.743-32.572-50.056-15.332-15.22-29.806-24.776-50.261-32.591-15.434-6.12-38.686-13.301-81.55-15.108-45.756-2.161-59.698-2.589-179.287-2.589-119.696 0-133.519 0.428-179.372 2.589-42.65 1.807-66.010 8.988-81.656 15.108-20.264 7.936-34.826 17.371-50.043 32.591-15.334 15.313-24.764 29.797-32.683 50.056-6.001 15.751-13.181 39.344-15.002 81.791-2.047 45.225-2.68 57.339-2.68 179.335 0 121.869 0.632 134.1 2.68 179.431 1.821 42.771 9.001 66.139 15.002 81.682 7.822 20.27 17.252 34.741 32.683 50.059 14.992 15.114 29.469 24.547 50.043 32.694 15.645 6.013 39.103 13.196 81.656 15.114 46.281 2.047 60.222 2.476 179.372 2.476 119.16 0 133.102-0.428 179.287-2.476 42.757-1.919 66.013-9.101 81.55-15.114 20.678-8.146 35.134-17.579 50.261-32.694 15.425-15.318 24.86-29.907 32.572-50.156 5.998-15.018 13.059-37.743 15.22-81.585 2.031-46.296 2.459-60.35 2.459-179.431zM892.948 503.249c-0.317 22.94-0.969 37.829-1.937 58.41l-0.205 4.727c-1.937 43.081-8.262 76.643-20.687 108.683-12.109 31.3-28.185 55.966-51.751 79.656-23.575 23.571-48.109 39.543-79.722 51.881-31.948 12.316-65.37 18.758-108.555 20.785-35.148 1.618-52.079 2.143-99.979 2.476l56.258 61.101c7.502 8.039 11.349 18.641 10.919 29.681-0.632 11.148-5.562 21.342-13.705 28.62-17.038 15.34-43.517 14.054-58.723-2.776l-78.118-84.801-77.798 84.694c-15.441 16.818-41.802 18.104-58.83 2.883-8.252-7.385-13.181-17.569-13.716-28.513-0.547-11.147 3.322-21.642 10.93-29.681l56.151-61.315c-47.054-0.225-64.949-0.751-99.979-2.369-43.088-2.027-76.618-8.469-108.669-20.785-31.494-12.338-56.034-28.31-79.512-51.881-23.683-23.916-39.757-48.463-51.854-79.656-12.323-31.933-18.753-65.485-20.789-108.683-2.143-47.176-2.679-62.827-2.679-183.301 0-120.486 0.536-136.136 2.679-183.311 2.036-43.398 8.466-76.855 20.789-108.58 12.098-31.203 28.075-55.747 51.854-79.638 23.253-23.491 47.792-39.465 79.512-51.881 31.73-12.435 65.27-18.88 108.669-20.911 47.042-2.040 61.187-2.468 183.337-2.468 122.064 0 136.316 0.428 183.252 2.468 43.496 2.031 77.035 8.476 108.555 20.911 31.613 12.314 56.147 28.297 79.722 51.881 23.789 23.891 39.754 48.435 51.751 79.638 12.425 31.827 18.75 65.275 20.687 108.58 2.254 45.889 2.683 59.813 2.683 183.311 0 57.981-0.112 94.212-0.54 120.164z" />
<glyph unicode="&#xe92f;" glyph-name="key" data-tags="key" d="M521.115 542.953l-34.267-34.267c-9.632 13.539-17.967 27.734-24.955 42.401v0c6.988-14.667 15.324-28.862 24.955-42.401l-425.286-425.286c-18.59-18.59-18.59-48.766 0-67.356s48.766-18.59 67.356 0l42.99 42.99h67.356l0.37 0.37h27.077l-0.017 27.060 0.37 0.37v67.356l30.815 30.815h67.356l0.37 0.37h27.077l-0.017 27.060 0.37 0.37v67.356l161.166 161.166c13.539-9.632 27.734-17.967 42.401-24.955l-156.3-156.3v-103.291c0-10.508-8.537-19.045-19.045-19.045h-103.291l-3.637-3.637v-103.291c0-10.508-8.537-19.045-19.045-19.045h-103.291l-29.401-29.401c-37.181-37.181-97.532-37.181-134.712 0s-37.181 97.532 0 134.712l434.009 434.009c-50.685 106.22-32.078 237.346 55.838 325.262 111.525 111.525 292.612 111.525 404.136 0s111.525-292.612 0-404.136c-87.916-87.916-219.042-106.524-325.262-55.838v0c-14.667 6.988-28.862 15.324-42.401 24.955l34.267 34.267c92.429-61.21 218.318-51.106 299.718 30.293 92.935 92.935 92.935 243.846 0 336.78s-243.846 92.935-336.78 0c-81.4-81.4-91.503-207.288-30.293-299.718zM701.444 790.638c-37.181-37.181-37.181-97.532 0-134.712s97.532-37.181 134.712 0c37.181 37.181 37.181 97.532 0 134.712s-97.532 37.181-134.712 0zM735.122 756.96c18.59 18.59 48.766 18.59 67.356 0s18.59-48.766 0-67.356c-18.59-18.59-48.766-18.59-67.356 0s-18.59 48.766 0 67.356z" />
<glyph unicode="&#xe930;" glyph-name="list" data-tags="list" d="M682.667 874.658c0 23.556-19.115 42.662-42.667 42.662h-597.333c-23.552 0-42.667-19.106-42.667-42.662 0-23.534 19.115-42.662 42.667-42.662h597.333c23.552 0 42.667 19.128 42.667 42.662zM1024 703.991c0 23.556-19.104 42.662-42.656 42.662h-938.688c-23.552 0-42.656-19.106-42.656-42.662 0-23.534 19.104-42.662 42.656-42.662h938.688c23.552 0 42.656 19.128 42.656 42.662zM1024 533.325c0 23.556-19.104 42.662-42.656 42.662h-938.688c-23.552 0-42.656-19.106-42.656-42.662 0-23.534 19.104-42.662 42.656-42.662h938.688c23.552 0 42.656 19.128 42.656 42.662zM1024 362.658c0 23.556-19.104 42.662-42.656 42.662h-938.688c-23.552 0-42.656-19.106-42.656-42.662 0-23.534 19.104-42.662 42.656-42.662h938.688c23.552 0 42.656 19.128 42.656 42.662zM1024 191.991c0 23.556-19.104 42.662-42.656 42.662h-938.688c-23.552 0-42.656-19.106-42.656-42.662 0-23.534 19.104-42.662 42.656-42.662h938.688c23.552 0 42.656 19.128 42.656 42.662zM1024 21.324c0 23.556-19.104 42.662-42.656 42.662h-938.688c-23.552 0-42.656-19.106-42.656-42.662 0-23.534 19.104-42.662 42.656-42.662h938.688c23.552 0 42.656 19.128 42.656 42.662z" />
<glyph unicode="&#xe931;" glyph-name="menu" data-tags="menu" d="M1024 746.656c0 23.563-19.115 42.651-42.667 42.651h-938.667c-23.552 0-42.667-19.088-42.667-42.651s19.115-42.651 42.667-42.651h938.667c23.552 0 42.667 19.088 42.667 42.651zM682.661 447.99c0 23.563-19.115 42.651-42.667 42.651h-597.334c-23.552 0-42.667-19.088-42.667-42.651s19.115-42.651 42.667-42.651h597.334c23.552 0 42.667 19.088 42.667 42.651zM512 149.323c0 23.563-19.115 42.651-42.667 42.651h-426.667c-23.552 0-42.667-19.088-42.667-42.651s19.115-42.651 42.667-42.651h426.667c23.552 0 42.667 19.088 42.667 42.651zM1024 447.99c0 23.563-19.12 42.651-42.667 42.651h-170.667c-23.547 0-42.667-19.088-42.667-42.651s19.12-42.651 42.667-42.651h170.667c23.547 0 42.667 19.088 42.667 42.651z" />
<glyph unicode="&#xe932;" glyph-name="module" data-tags="module" horiz-adv-x="981" d="M298.146 174.757v-137.575l138.633 111.042-85.863 68.801-52.77-42.268zM132.516 254.357l46.608-37.332-85.863-68.801 138.633-111.042v137.575l-99.378 79.6zM132.516 254.357l-132.504 106.133 265.009 212.267 265.009-212.267v-212.267l-265.009-212.267-265.009 212.267v212.267l66.252-53.067v-106.133l66.252 53.067zM397.524 254.357l66.252-53.067v106.133l-66.252-53.067zM436.779 360.491l-171.759 137.575-171.759-137.575 171.759-137.575 171.759 137.575zM734.979 174.757v-137.575l138.633 111.042-85.863 68.801-52.77-42.268zM569.348 254.357l46.608-37.332-85.863-68.801 138.633-111.042v137.575l-99.378 79.6zM569.348 254.357l-132.504 106.133 265.009 212.267 265.009-212.267v-212.267l-265.009-212.267-265.009 212.267v212.267l66.252-53.067v-106.133l66.252 53.067zM834.357 254.357l66.252-53.067v106.133l-66.252-53.067zM873.611 360.491l-171.759 137.575-171.759-137.575 171.759-137.575 171.759 137.575zM516.577 561.957v-137.575l138.633 111.042-85.863 68.801-52.77-42.268zM350.947 641.557l46.608-37.332-85.863-68.801 138.633-111.042v137.575l-99.378 79.6zM350.947 641.557l-132.504 106.133 265.009 212.267 265.009-212.267v-212.267l-265.009-212.267-265.009 212.267v212.267l66.252-53.067v-106.133l66.252 53.067zM615.955 641.557l66.252-53.067v106.133l-66.252-53.067zM655.21 747.691l-171.759 137.575-171.759-137.575 171.759-137.575 171.759 137.575z" />
</font>
</defs>
</svg>
